<svg xmlns="http://www.w3.org/2000/svg" version="1.1" width="600px" height="600px" viewBox="0 0 200 200" style="overflow:hidden!important;"><g id="svga-group-wrapper"><g id="svga-group-backs-single"><path id="SvgjsPath16174" d="M0 0h200v200H0V0z" fill="opacity" stroke-width="none" opacity="0"></path></g><g id="svga-group-humanwrap-move" transform="matrix(1,0,0,1,0,0)"><g id="svga-group-humanwrap"><g id="svga-group-hair-back-move" transform="matrix(1,0,0,1,0,0)"><g id="svga-group-hair-back"><path id="SvgjsPath16401" d="m56.4 195.5-4.2-50.8-1.8-50.2 2.3-24.8 12.7-21.8 20.1-11.7 15.7.3 14.8.2 14.7 9.2 8.9 12 7.4 20.3 1.2 59.8 1.4 27.6-5.1 30.4-88.1-.5z" fill="#873a1e" stroke-width="none" opacity="1"></path><path id="SvgjsPath16402" d="M75.6 51.2S59.1 76.8 57.2 83.7c-1.9 6.9 5 97 5 97l.5-51.9s3.6 43.3 5.3 49.7c1.7 6.5 1-39 1.4-40.9.5-1.9 4.5 35.8 5.3 39.2.7 3.3 49.2 2.4 49.5 1.4.2-1 2.4-35.4 2.6-38 0 0 2.6 28.4 3.6 37.5 0 0 1-25.1 1.4-40.6 0 0 5.5 35.8 5.5 43.5h3.1s1-17.2.7-28.2c-.2-11 .7-33.7.7-33.7s2.6 51.1 2.2 59c0 0 2.2-14.1 2.2-28.2s-1-46.6-1-48.3-2.4-22-4.8-27.5-37.5-24.1-42.8-24.4-22 1.9-22 1.9z" fill="#8f4327" stroke-width="none" opacity="1"></path></g></g><g id="svga-group-humanbody-back"><path id="SvgjsPath16244" d="m168.2 200-4.6-14.2-34.9-13.4-10.8-9.7-1.4-50.5h-33l-1.4 50.5-10.8 9.7-34.9 13.4-4.6 14.2-3 20h142.4z" fill="#f3d4cf" stroke-width="none" opacity="1"></path><path id="SvgjsPath16245" d="m83.5 112.2-1.4 50.5-10.8 9.7-34.9 13.4-4.6 14.2-3 20H39v-20l1.7-13.3 32.1-12.9 14.1-9.5 2-52.1z" fill="#d4958a" stroke-width="none" opacity="1"></path></g><g id="svga-group-chinshadow-single"><path id="SvgjsPath16240" d="m117.5 150.3-1-38.2h-33l-1.1 42.1c2.9 2 6 3.9 9.3 5.8l5.5 1.1 5.5-1.1c5.6-3.1 10.6-6.5 14.8-9.7z" fill="#c5796d" stroke-width="none" opacity="1"></path></g><g id="svga-group-humanbody-front"></g><g id="svga-group-clothes-single"><path id="SvgjsPath16377" d="m168.9 200-3.2-16-35-11.4-6.8-4.8-.1-1.5-6-8.8v3.5l-.7 12.2-5.6 7.9-6.5 1.9-1.6 5.7-1.5 2.9-5.5-9.3-7.7-1.2-4.3-7.3-2.3-13.1.1-3.2-6 8.8-.1 1.5-6.9 4.8L34.3 184 31 200l-2.4 20h142.7z" fill="#374375" stroke-width="none" opacity="1"></path><path id="SvgjsPath16378" d="m43 200.7 2.6-10.8 24.2-9.6 5.1-3.2.3-2 8.3-5.7h.1l-1.4-8.7v-3.2l-6 8.8-.1 1.5-6.9 4.8L34.3 184 31 200l-2.4 20h14.2z" fill="#263266" stroke-width="none" opacity="1"></path><path id="SvgjsPath16379" d="m123.9 167.8 1.9 19.2.9 8.7-8.5-7.7-3.8-5.3-3.1-1.6 2.9 3.4-4.7 2.6-5.8 1.5 5.1-.6-6.3 11.8V220h1.2l-.6-19.8 5.7-12 .7-.1 5.1-2.8 3.1 4.5 9.7 8.1-1.2-12.4-2.3-17.7zm-24.1 29.7 2.1-5.9-2.5 5-4.4-8.7-9.1-3.4 2.8-3.3-3.1 1.6-3.8 5.3-8.5 7.7.9-8.7 1.9-19.2-2.5 17.7-1.2 12.4 9.7-8.1 3.3-4.9.4-.5 8.5 4.3 4.4 8.6-.9.7.8 21.9h1.1l-1-21 1.1-1.5zm7.6-12.8-1.1-.8-.7 1.4 1 1 .8-1.6zm-6.8 13.3 1 1 .7-1.7-1.1-.8-.6 1.5zm-.5 18.6 1 1 .7-1.7-1.1-.8-.6 1.5zm-53.7-28.3 4.9 17.2.9 14.5h1l-.8-14.6-6-17.1zm107.9 15.5-.9 16.2h1.4l.7-16 5.1-15.2-6.3 15z" fill="#172456" stroke-width="none" opacity="1"></path><path id="SvgjsPath16380" d="m119.6 162.5-.8-1.4v13l-3.9 8 3.5 4.6s1.7-11.1 1.7-11.8c0-.7-.5-12.4-.5-12.4zm-38.7.1.4-2.3-1.3 2.5.9 13.4 1.6 9.5 2.7-4.3-2.9-6.1-1.4-12.7z" fill="#4b5684" stroke-width="none" opacity="1"></path></g><g id="svga-group-head" transform="matrix(1,0,0,1,0,0)"><g id="svga-group-ears-left-move" transform="matrix(1,0,0,1,0,0)"><g id="svga-group-ears-left"><path id="SvgjsPath16192" d="M65.4 96.3s-7.6-6.9-9.2-8c0 0-3.7 1-6.6 2l2.7 9.3 2.9 8.6 1.4 11.5 4.2-.3 5.9-10-1.3-13.1z" fill="#f3d4cf" stroke-width="none" opacity="1"></path><path id="SvgjsPath16193" d="M51.4 91.2 56 93l4.4 9.4-.5 8.9-3.4-5.6-.2-4.9s1.2-1.1 1.1-1.5-1.9-5.2-1.9-5.2l-3.7-2s1.3 5.7 1.1 5.4c-.1-.3-2.2-6.2-2.2-6.2l.7-.1z" fill="#d4958a" stroke-width="none" opacity="1"></path><path id="SvgjsPath16194" d="M53.67 89.04c1.5-.4 2.53-.74 2.53-.74 1.6 1.1 9.2 8 9.2 8l1.3 13.1-5.9 10-4.2.3 4.3-2.9 2.3-15.7-5.9-10.3-3.63-1.76z" fill="#e4b3ab" stroke-width="none" opacity="1"></path></g></g><g id="svga-group-ears-right-move" transform="matrix(1,0,0,1,0,0)"><g id="svga-group-ears-right"><path id="SvgjsPath16195" d="M134.6 96.3s7.6-6.9 9.2-8c0 0 3.7 1 6.6 2l-2.7 9.3-2.9 8.6-1.4 11.5-4.2-.3-5.9-10 1.3-13.1z" fill="#f3d4cf" stroke-width="none" opacity="1"></path><path id="SvgjsPath16196" d="M148.6 91.2 144 93l-4.4 9.4.5 8.9 3.4-5.6.2-4.9s-1.2-1.1-1.1-1.5c.1-.3 1.9-5.2 1.9-5.2l3.7-2s-1.3 5.7-1.1 5.4c.1-.3 2.2-6.2 2.2-6.2l-.7-.1z" fill="#d4958a" stroke-width="none" opacity="1"></path><path id="SvgjsPath16197" d="M146.33 89.03c-1.5-.4-2.53-.73-2.53-.73-1.6 1.1-9.2 8-9.2 8l-1.3 13.1 5.9 10 4.2.3-4.3-2.9-2.3-15.7 5.9-10.3 3.63-1.77z" fill="#e4b3ab" stroke-width="none" opacity="1"></path></g></g><g id="svga-group-faceshape-wrap"><g id="svga-group-faceshape-single"><path id="SvgjsPath16226" d="M136.8 61c-6.7-11.2-19-18.9-19-18.9-7-1.5-17.8-2.2-17.8-2.2s-10.8.8-17.8 2.2c0 0-12.4 7.6-19 18.9 0 0-5 14-5.2 23.9 0 0 1.4 33.9 4.4 42.6 0 0 12.2 14.4 32.1 25.5l5.5 1.1 5.5-1.1c19.9-11.1 32.1-25.5 32.1-25.5 3-8.7 4.4-42.6 4.4-42.6-.3-9.8-5.2-23.9-5.2-23.9z" fill="#f3d4cf" stroke-width="none" opacity="1"></path><path id="SvgjsPath16227" d="M83.9 44.1c8.8-3 33.9-2 33.9-2-7-1.5-17.8-2.2-17.8-2.2s-10.8.8-17.8 2.2c0 0-12.4 7.6-19 18.9 0 0-5 14-5.2 23.9 0 0 1.4 33.9 4.4 42.6 0 0 8.6 10.2 23.2 20-8.6-8.6-16.4-24.8-16.4-24.8-2.1-9.7-7.4-39-7.4-39 0-3.5 3.9-20.6 3.9-20.6 2-3.9 18.2-19 18.2-19z" fill="#d4958a" stroke-width="none" opacity="1"></path></g></g><g id="svga-group-mouth-single-move" transform="matrix(1,0,0,1,0,0)"><g id="svga-group-mouth-single"><path id="SvgjsPath16478" d="m81.97 124.18 12.58 12.94 13.37.22 10.62-12.51-17.89 1.82-.29.51-.43-.65z" fill="#da7c87" stroke-width="none" opacity="1" transform="translate(0 3)"></path><path id="SvgjsPath16479" d="m83.13 125.04 10.12 9.44 14.22.32 10.07-9.34-16.81 3.98z" fill="#000000" stroke-width="none" opacity="1" transform="translate(0 3)"></path><path id="SvgjsPath16480" d="m83.13 125.04 5.32 4.96 12.26 2.26s7.19-.9 11.47-1.84l5.35-4.96-16.82 3.98-17.58-4.4z" fill="#ffffff" stroke-width="none" opacity="1" transform="translate(0 3)"></path></g></g><g id="svga-group-eyes-left-move" transform="matrix(1,0,0,1,0,0)"><g id="svga-group-eyes-left"><g id="svga-group-eyesback-left"><path id="SvgjsPath16300" d="M92 100.8 87.7 97s-12.6-.7-12.9-.7-6.2 4.1-5.9 4.2c.2.2 6.3 2.9 8.7 3.4 0 0 3.7 0 7.5-.8 2.7-.6 5.5-1.7 6.9-2.3z" fill="#ffffff" stroke-width="none" opacity="1"></path></g><g id="svga-group-eyesiriswrapper-left" transform="matrix(1,0,0,1,0,0)"><g id="svga-group-eyesiriscontrol-left" transform="matrix(1,0,0,1,0,0)"><g id="svga-group-eyesiris-left"><path id="SvgjsPath16260" d="m82.59 104.53-4.96-1.82-.91-5.21 4.06-3.39 4.96 1.82.91 5.21z" fill="#798464" stroke-width="none" opacity="1"></path><path id="SvgjsPath16261" d="m78.98 100.2.59-2.78 2.71-.88 2.11 1.9-.59 2.78-2.71.88z" fill="#000000" stroke-width="none" opacity="1"></path><path id="SvgjsPath16262" d="m78.88 96.88 1.96 1.88.55-.39-1.1-2.43z" fill="#ffffff" stroke-width="none" opacity="1"></path><path id="SvgjsPath16263" d="m82.49 101.12.47.86.78-.31-.39-.95z" fill="#ffffff" stroke-width="none" opacity="1"></path></g></g></g><g id="svga-group-eyesfront-left"><path id="SvgjsPath16308" d="M68 94.5v11.1l7.7 7.9h10.9l7.7-7.9V94.5l-7.7-7.9H75.7L68 94.5zm.9 6.1c-.2-.2 5.7-4.2 5.9-4.2.2 0 12.9.7 12.9.7l4.3 3.8c-1.4.6-4.2 1.7-7 2.3-3.8.8-7.5.8-7.5.8-2.3-.5-8.3-3.3-8.6-3.4z" fill="#f3d4cf" stroke-width="none" opacity="1"></path><path id="SvgjsPath16309" d="m92.3 99.9-3.9-5.3-10.9-.1-2.3 1.3 3.5-.8 9.3.5z" fill="#e4b3ab" stroke-width="none" opacity="1"></path><path id="SvgjsPath16310" d="m67.5 101.7 1.8-.2-3.1-1.2 2.1-.4.5-.3-1.2-.3 1.7-.1 1.2-.8-1.9-.4 2.4.1 1.2-.8-1.3-.4 1.8.1.7-.5-.8-.3h1.3l.3-.1 13.6.5 4.9 4.3-.8-.1-4.3-3.6-12.6-.4-4.6 3.6 7.1 3.6-1.8-.2-.9-.4h-1.9l1.1-.3-1.6-.5-2.5-.1 1.5-.3-1.3-.5z" fill="#000000" stroke-width="none" opacity="1"></path></g></g></g><g id="svga-group-eyes-right-move" transform="matrix(1,0,0,1,0,0)"><g id="svga-group-eyes-right"><g id="svga-group-eyesback-right"><path id="SvgjsPath16301" d="m108 100.8 4.3-3.8s12.6-.7 12.9-.7 6.2 4.1 5.9 4.2c-.2.2-6.3 2.9-8.7 3.4 0 0-3.7 0-7.5-.8-2.7-.6-5.5-1.7-6.9-2.3z" fill="#ffffff" stroke-width="none" opacity="1"></path></g><g id="svga-group-eyesiriswrapper-right" transform="matrix(1,0,0,1,0,0)"><g id="svga-group-eyesiriscontrol-right" transform="matrix(1,0,0,1,0,0)"><g id="svga-group-eyesiris-right"><path id="SvgjsPath16264" d="m119.22 104.53-4.96-1.82-.91-5.21 4.06-3.39 4.96 1.82.91 5.21z" fill="#798464" stroke-width="none" opacity="1"></path><path id="SvgjsPath16265" d="m115.61 100.2.59-2.78 2.71-.88 2.11 1.9-.59 2.78-2.71.88z" fill="#000000" stroke-width="none" opacity="1"></path><path id="SvgjsPath16266" d="m115.51 96.88 1.96 1.88.55-.39-1.1-2.43z" fill="#ffffff" stroke-width="none" opacity="1"></path><path id="SvgjsPath16267" d="m119.12 101.12.47.86.78-.31-.39-.95z" fill="#ffffff" stroke-width="none" opacity="1"></path></g></g></g><g id="svga-group-eyesfront-right"><path id="SvgjsPath16311" d="M124.3 86.6h-10.9l-7.7 7.9v11.1l7.7 7.9h10.9l7.7-7.9V94.5l-7.7-7.9zm-1.9 17.3s-3.7 0-7.5-.8c-2.7-.6-5.5-1.7-7-2.3l4.3-3.8s12.6-.7 12.9-.7c.2 0 6.2 4.1 5.9 4.2-.2.2-6.2 3-8.6 3.4z" fill="#f3d4cf" stroke-width="none" opacity="1"></path><path id="SvgjsPath16314" d="m107.7 99.9 3.9-5.3 10.9-.1 2.3 1.3-3.5-.8-9.3.5z" fill="#e4b3ab" stroke-width="none" opacity="1"></path><path id="SvgjsPath16315" d="m132.5 101.7-1.8-.2 3.1-1.2-2.1-.4-.5-.3 1.2-.3-1.7-.1-1.2-.8 1.9-.4-2.4.1-1.2-.8 1.3-.4-1.8.1-.7-.5.8-.3h-1.3l-.3-.1-13.6.5-4.9 4.3.8-.1 4.3-3.6 12.6-.4 4.6 3.6-7.2 3.5 1.9-.1.9-.4h1.9l-1.1-.3 1.6-.5 2.5-.1-1.5-.3 1.3-.5z" fill="#000000" stroke-width="none" opacity="1"></path></g></g></g><g id="svga-group-facehighlight-single"></g><g id="svga-group-eyebrows-left-move" transform="matrix(1,0,0,1,0,0)"><g id="svga-group-eyebrows-left-rotate" transform="matrix(1,1.7453292519943295e-9,-1.7453292519943295e-9,1,1.5158184396568686e-7,-1.3953906830010965e-7)"><g id="svga-group-eyebrows-left"><path id="SvgjsPath16355" d="m92.2 87.2-1.7 3.5-14.6-4.1-8.2 2 5.9-5 3-.6z" fill="#2a232b" stroke-width="none" opacity="1"></path><path id="SvgjsPath16356" d="m85.7 85.5 1.4.4.5 2.6-1.9-3zM76.6 83l3 3.6-4.3-3.4 1.3-.2zm6.4 1.7 1 3.1-2.6-3.5 1.6.4zm-12 1.1h1.9l-2.6.6.7-.6zm13.9-.6.2 1.1-1.2-1.3 1 .2zm-11.3-1.6 2.6 1.4-3.2-.8.6-.6zm15.7 2.8.5 3.1-2.3-3.5 1.8.4z" fill="#3a353a" stroke-width="none" opacity="1"></path></g></g></g><g id="svga-group-eyebrows-right-move" transform="matrix(1,0,0,1,0,0)"><g id="svga-group-eyebrows-right-rotate" transform="matrix(1,1.7453292519943295e-9,-1.7453292519943295e-9,1,1.5158184396568686e-7,-2.0952678880803433e-7)"><g id="svga-group-eyebrows-right"><path id="SvgjsPath16357" d="m107.8 87.2 1.7 3.5 14.6-4.1 8.2 2-5.9-5-3-.6z" fill="#2a232b" stroke-width="none" opacity="1"></path><path id="SvgjsPath16358" d="m114.3 85.5-1.4.4-.5 2.6 1.9-3zm9.1-2.5-3 3.6 4.3-3.4-1.3-.2zm-6.4 1.7-1 3.1 2.6-3.5-1.6.4zm12 1.1h-1.9l2.6.6-.7-.6zm-13.9-.6-.2 1.1 1.1-1.4-.9.3zm11.3-1.6-2.6 1.4 3.2-.8-.6-.6zm-15.7 2.8-.5 3.1 2.3-3.5-1.8.4z" fill="#3a353a" stroke-width="none" opacity="1"></path></g></g></g><g id="svga-group-nose-single-move" transform="matrix(1,0,0,1,0,0)"><g id="svga-group-nose-single"><path id="SvgjsPath16346" d="m103.35 108.14-.8-.31 5.16 8.97-1.6 2.28-1.38-.95.22-1.02-1.09.47-1.6 3.15-2.1.08-2.5-.08-1.6-3.15-1.08-.47.21 1.02-1.38.95-1.59-2.28 5.15-8.97.33-10.76-1.13 11.07-5.22 8.81 2.54 3.31 2.17-1.58 1.24 2.76h5.33l1.23-2.76 2.18 1.58 2.54-3.31z" fill="#d4958a" stroke-width="none" opacity="1" transform="translate(0 2)"></path><path id="SvgjsPath16347" d="m97.27 117.21 1.3.61 3.06.08 1.53-.69-.58-2.35-.98-3.1-2.03 4.07z" fill="#fbe5e2" stroke-width="none" opacity="1" transform="translate(0 2)"></path></g></g><g id="svga-group-hair-front"><path id="SvgjsPath16399" d="m101.2 38-24.8 5-17.5 20.1L54 85.2l3.6 13.1 4.3 33-.2-39.8 4 26.7.6-41.8 2.5 17.1 2.5-27.7 3.3-9.1-1.6 23 4.7-16.4-.7 18.8 4.2-16.3 1.7 18.3L90.1 52l-3 27 3.2-14.5-.2 20.6 3.2-19.6.7 18.6 1.5-8.1.7 5.6 2-17.6 1 19.4s4.5-13.5 5-22.9l1 21.1 4-13.1 1.7-13.1 2 12.6.5 14.1s1.2-4.3 2.2-10.5c.3-1.7.6-3.6.8-5.5 0 0 1.2 4.8 2.1 10.2.7 3.9 1.2 8 1.1 10.9 0 0 2-5.9 2.8-15 .4-3.9.5-8.4.2-13.3l3.5 28.3 1.2-17.1s3.2 9.9 3.5 18.8l1.4-12.2s.2-8.2-.4-12c0 0 3.2 26.7 1.7 44.3 0 0 1.3-5.1 2.2-11.9.4-3 1.3-8.1 1.4-11.5l1.6 14-1.2 23.1 5.1-24.3 2.6-20.3-8.1-20.5L122.7 42l-21.5-4z" fill="#8f4327" stroke-width="none" opacity="1"></path><path id="SvgjsPath16400" d="m117.1 43.1 4.4 2.7 14.6 11.8-.1 18.1-3-16-4.4-4.8.9 4.8s.8 4.9.9 7.8l-4.9-11.8-6.1-7.8s.5 3.1.9 7.2.8 9.3.6 13.4c0 0-2.2-16.3-3.3-18.4 0 0-.2 8.3-.3 10.1-.2 1.8-2.7-12.5-2.7-12.5l-.5 6-2.3-13 5.3 2.4zm-6.6-1.2s-.8 15.6-2 20.1c0 0-1.2-12.4 2-20.1zm-14.3-.7-1.9 5.5S91.5 57 91.6 62.4l3.1-11.2s-.5 11.8.2 17.4c0 0 .9-6.1 1.7-12.1.4-3.1.8-6.2.9-8.4 0 0 2.4 12.5 2.5 16.4 0 0 1.4-13 1.4-19.9 0 0 1.4 6.3 1.5 10.7l1.5-13.7s.9 6.1 1 5.7c.1-.4 1.7-6.2 1.7-6.2l-6.1-.6-4.8.7zm-4.7 2.7-3.7 7.5s-3 7-3.6 9.9c0 0 .2-4.8 1.1-10 0 0-4.2 6.8-5.1 11.4l1.7-9.7s1.7-4.4 3.2-6.5l-.4 2.5 6.8-5.1z" fill="#974c31" stroke-width="none" opacity="1"></path></g><g id="svga-group-glasses-single-move" transform="matrix(1,0,0,1,0,0)"><g id="svga-group-glasses-single"></g></g></g></g></g><rect id="svga-credit-rect" width="200" height="15" x="0" y="185" fill="#ecf0f1" opacity="0.5" style="display: none;"></rect><text id="svga-credit-text" font-family="Avenir Next, Roboto, Helvetica, Arial, sans-serif" font-size="10px" text-anchor="start" font-weight="400" size="10px" anchor="start" weight="400" fill="#333333" x="33.40447998046875" y="182.60824704170227" style="display: none;"><tspan id="SvgjsTspan16173" dy="13" x="33.40447998046875">Created on AvatarMaker.com</tspan></text></g><defs id="SvgjsDefs16125"></defs></svg>