<svg xmlns="http://www.w3.org/2000/svg" version="1.1" width="600px" height="600px" viewBox="0 0 200 200" style="overflow:hidden!important;"><g id="svga-group-wrapper"><g id="svga-group-backs-single"><path id="SvgjsPath10529" d="M0 0h200v200H0V0z"  stroke-width="none" opacity="0"></path></g><g id="svga-group-humanwrap-move" transform="matrix(1,0,0,1,0,-6)"><g id="svga-group-humanwrap" transform="matrix(0.9499999,0,0,0.9499999,5.000009427794268,6.057090857138448)"><g id="svga-group-hair-back-move" transform="matrix(0.9986295346632303,-0.05233595798588131,0.05233595798588131,0.9986295346632303,-7.975026954134634,5.44601792578743)"><g id="svga-group-hair-back"><path id="SvgjsPath10647" d="M73.5 42.9 55 55.6l-4.3 23.1v42.8l-1.8 11-4.9 9.2 7.7-9.2-4.9 15.1 6.4-11.5 2.6-6.1-.5 13.6s-3.3 11.5-2.8 10.8 5.1-10.8 5.1-10.8l3.6-9.5-1.3 11.3-2.8 11 4.9-8.7-1.8 9.7 4.9-8.7 3.8-9.2-.8 11-1.3 8.2 3.8-8.7 1.8-9.2.5 9.5-1 10 2.8-7.7 1.3 8.2 6.2-11.8 38.7.3 3.1 10.5.5-11.8 2.1 7.9 3.3 2.1-2.3-4.6-1-10.2 5.6 10.2 4.4 3.6-3.3-5.4-2.6-10.5 4.9 9.5 3.3 2.3-3.3-7.7-.3-12.3 4.9 13.1 1 5.6s1-5.6.8-6.9c-.3-1.3-3.1-14.1-3.1-14.1l6.7 16.1 2.1 1.3-5.4-24.3 5.6 14.6 5.4 7.7-4.9-13.6-1.3-10.8 4.6 12.8s-3.3-22-3.3-23.3S147 82 147 82l-.4-17.4-32.7-27.1-40.4 5.4z" fill="#5c3d2e" stroke-width="none" opacity="1"></path></g></g><g id="svga-group-humanbody-back"><path id="SvgjsPath10480" d="m170 180.3-27.3-6.9-18-9.9-1.5-28.2H76.8l-1.5 28.2-18 9.9-27.3 6.9-9.1 19.7-3 20h164.2l-3-20z" fill="#f0c7b1" stroke-width="none" opacity="1"></path><path id="SvgjsPath10481" d="m76.8 135.3-1.5 28.2-18 9.9-27.3 6.9-9.1 19.7-3 20h14.6v-20l2.7-17.7 23.8-6.4 24.7-8.3 3.5-32.3z" fill="#d19271" stroke-width="none" opacity="1"></path></g><g id="svga-group-chinshadow-single"><path id="SvgjsPath10476" d="m123.5 141.7-.3-6.4H76.8l-.8 15.6 4 7.3 17.2 4.3 17.2-4.3z" fill="#c27b55" stroke-width="none" opacity="1"></path></g><g id="svga-group-humanbody-front"><path id="SvgjsPath10482" d="m92.8 168.3 2 7.9 6.9 4.6s-8.5-3-8.7-3.6c-.2-.6-.2-8.9-.2-8.9z" fill="#d19271" stroke-width="none" opacity="1"></path></g><g id="svga-group-clothes-single"><path id="SvgjsPath10914" d="m179.6 200-8.5-20-28.8-7.4-9.5-4.8-.1-1.5-8.3-8.8.2 3.5-1.1 12.2-7.6 7.9-9.1 1.9-2.1 5.7-2.1 2.9-7.5-9.3-10.7-1.2-5.8-7.3-3.2-13.1.2-3.2-8.3 8.8-.1 1.5-9.5 4.8L29 180l-8.6 20-3.4 20h165.9z" fill="#d4d3ce" stroke-width="none" opacity="1" stroke="none"></path><path id="SvgjsPath10915" d="m29.9 200.7 3.6-10.8 24.9-9.6 7.2-3.2.3-2 11.5-5.7h.1l-2.1-8.7.2-3.2-8.3 8.8-.1 1.5-9.5 4.8L29 180l-8.6 20-3.4 20h12.6z" fill="#c5c0ab" stroke-width="none" opacity="1" stroke="none"></path><path id="SvgjsPath10916" d="m132.8 167.8 2.7 19.2 1.2 8.7L125 188l-5.2-5.3-4.2-1.6 4 3.4-6.4 2.6-7.9 1.5 7-.6-8.7 11.8V220h1.7l-.8-19.8 7.8-12 1-.1 7.1-2.8 4.2 4.5 13.3 8.1-1.6-12.4-3.5-17.7zm-33.1 29.7 2.9-5.9-3.5 5-6.1-8.7-12.5-3.4 3.8-3.3-4.2 1.6L75 188l-11.7 7.7 1.2-8.7 2.7-19.2-3.4 17.7-1.6 12.4 13.3-8.1 4.6-4.9.5-.5 11.8 4.3 6.1 8.6-1.2.7 1.1 21.9h1.5l-1.3-21 1.1-1.4zm10.5-12.8-1.5-.8-.9 1.4 1.4 1 1-1.6zm-9.3 13.3 1.4 1 1-1.7-1.5-.8-.9 1.5zm-.8 18.6 1.4 1 1-1.7-1.5-.8-.9 1.5zm-69.7-35.3 6.8 21 1.2 17.7h1.4l-1.1-17.8-8.3-20.9zm130.5 19.3-1.2 19.4h1.9l1-19.2 7-18.2-8.7 18z" fill="#b5ae8c" stroke-width="none" opacity="1" stroke="none"></path><path id="SvgjsPath10917" d="m127 162.5-1.1-1.4v13l-5.3 8 4.8 4.6s2.3-11.1 2.3-11.8c0-.7-.7-12.4-.7-12.4zm-53.2.1.5-2.3-1.8 2.5 1.2 13.4 2.1 9.5 3.8-4.3-3.9-6.1-1.9-12.7z" fill="#e3e3e3" stroke-width="none" opacity="1" stroke="none"></path></g><g id="svga-group-head" transform="matrix(0.9986295346632303,-0.05233595798588131,0.05233595798588131,0.9986295346632303,-7.975026954134634,5.44601792578743)"><g id="svga-group-ears-left-move" transform="matrix(1,0,0,1,0,0)"><g id="svga-group-ears-left"><path id="SvgjsPath10376" d="M63.1 91.8s-6-.7-10.6-3.7c0 0-3.5 9.4-4 14.4 0 0 6.7 13 10 18.5 0 0 5.2-.7 6.3-1.4l1.4-8.4-3.1-19.4z" fill="#f0c7b1" stroke-width="none" opacity="1"></path><path id="SvgjsPath10377" d="M53.3 90c-.2-.4-.8-1.9-.8-1.9 5.2.4 10.7 1.4 10.7 1.4l3 21.6-1.4 8.4c-1.1.7-6.3 1.4-6.3 1.4-.6-1-1.3-2.3-2.1-3.6l2.6 1 3-1.6s.7-11.2.5-11.5c-.1-.3-9-14.8-9.2-15.2z" fill="#e1ac8f" stroke-width="none" opacity="1"></path><path id="SvgjsPath10378" d="m50.3 100.9 2.8-5.5 5.2 6.8 2.2 9.5-1.4 1.9-4.3-7.6 1-4.7-2.6-4z" fill="#d19271" stroke-width="none" opacity="1"></path></g></g><g id="svga-group-ears-right-move" transform="matrix(1,0,0,1,0,0)"><g id="svga-group-ears-right"><path id="SvgjsPath10379" d="M136.9 91.8s6-.7 10.6-3.7c0 0 3.5 9.4 4 14.4 0 0-6.7 13-10 18.5 0 0-5.2-.7-6.3-1.4l-1.4-8.4 3.1-19.4z" fill="#f0c7b1" stroke-width="none" opacity="1"></path><path id="SvgjsPath10380" d="M146.7 90c.2-.4.8-1.9.8-1.9-5.2.4-10.7 1.4-10.7 1.4l-3 21.6 1.4 8.4c1.1.7 6.3 1.4 6.3 1.4.6-1 1.3-2.3 2.1-3.6l-2.6 1-3-1.6s-.7-11.2-.5-11.5c.1-.3 9-14.8 9.2-15.2z" fill="#e1ac8f" stroke-width="none" opacity="1"></path><path id="SvgjsPath10381" d="m149.7 100.9-2.8-5.5-5.2 6.8-2.2 9.5 1.4 1.9 4.3-7.6-1-4.7 2.6-4z" fill="#d19271" stroke-width="none" opacity="1"></path></g></g><g id="svga-group-faceshape-wrap"><g id="svga-group-faceshape-single"><path id="SvgjsPath10458" d="M143.4 84.8c-.2-10.2-5.3-24.8-5.3-24.8-6.9-11.6-19.7-19.5-19.7-19.5-7.2-1.5-18.4-2.3-18.4-2.3s-11.1.8-18.4 2.3c0 0-12.8 7.9-19.7 19.5 0 0-5.1 14.5-5.3 24.8l1.1 24.4L68.6 127l14.2 25.6 17.2 4.3 17.2-4.3 14.2-25.6 10.9-17.8 1.1-24.4z" fill="#f0c7b1" stroke-width="none" opacity="1"></path><path id="SvgjsPath10459" d="M62.5 107.9s12.7 8.8 15.2 11.5 4.1 20.4 4.1 20.4l-7.4-19.3-11.9-12.6z" fill="#e1ac8f" stroke-width="none" opacity="1"></path><path id="SvgjsPath10460" d="M137.9 107.9s-12.7 8.8-15.2 11.5-4.1 20.4-4.1 20.4l7.4-19.3 11.9-12.6z" fill="#e1ac8f" stroke-width="none" opacity="1"></path><path id="SvgjsPath10461" d="M84.1 150.8s-9-22.6-9.8-23.8c-.7-1.2-12.8-18.8-12.8-18.8l-1-24.7 4-22.1 19-16.6 15.9-4.3 18.1.2.9-.2c-7.2-1.5-18.4-2.3-18.4-2.3s-11.1.8-18.4 2.3c0 0-12.8 7.9-19.7 19.5 0 0-5.1 14.5-5.3 24.8l1.1 24.4L68.6 127l14.2 25.6 17.2 4.3 17.2-4.3-17.4 3.2-15.7-5z" fill="#d19271" stroke-width="none" opacity="1"></path></g></g><g id="svga-group-mouth-single-move" transform="matrix(1,0,0,1,0,0)"><g id="svga-group-mouth-single"><path id="SvgjsPath10558" d="m84.99 125.5 2.75 3.94 12.37-.68 12.45.84 3.02-3.87-3.73 2.46-6.81-2.5-4.93 1.46-4.57-1.35-7.7 1.93z" fill="#da7c87" stroke-width="none" opacity="1" transform="translate(0 2)"></path><path id="SvgjsPath10559" d="m89.12 131.92 1.15 2.64 10.05 2.86 10.83-3.61-10.89 2.15-9.41-2.31-1.73-1.73z" fill="#d19271" stroke-width="none" opacity="1" transform="translate(0 2)"></path></g></g><g id="svga-group-eyes-left-move" transform="matrix(1,0,0,1,0,0)"><g id="svga-group-eyes-left"><g id="svga-group-eyesback-left"><path id="SvgjsPath10416" d="m91.1 97-4.5-5.3-10.7-.6-7.7 4.2 11.5 3.8z" fill="#ffffff" stroke-width="none" opacity="1"></path></g><g id="svga-group-eyesiriswrapper-left" transform="matrix(1,0,0,1,0,0)"><g id="svga-group-eyesiriscontrol-left" transform="matrix(1,0,0,1,0,0)"><g id="svga-group-eyesiris-left"><path id="SvgjsPath10497" d="m82.2 100.2-5.5-2-1-5.8 4.5-3.8 5.5 2.1 1 5.7z" fill="#7b9ad1" stroke-width="none" opacity="1"></path><path id="SvgjsPath10498" d="m78.2 95.4.6-3.1 3-1 2.4 2.1-.7 3.1-3 1z" fill="#000000" stroke-width="none" opacity="1"></path><path id="SvgjsPath10499" d="m78 91.7 2.2 2.1.6-.4-1.2-2.7z" fill="#ffffff" stroke-width="none" opacity="1"></path><path id="SvgjsPath10500" d="m82.1 96.4.5 1 .8-.4-.4-1z" fill="#ffffff" stroke-width="none" opacity="1"></path></g></g></g><g id="svga-group-eyesfront-left"><path id="SvgjsPath10424" d="M67.1 89.3v11.9l7.9 8.4h11.2l7.9-8.4V89.3l-7.9-8.4H75l-7.9 8.4zm1.1 6 7.7-4.2 10.7.6 4.5 5.3-11.5 2.1-11.4-3.8z" fill="#f0c7b1" stroke-width="none" opacity="1"></path><path id="SvgjsPath10425" d="m67.7 95.5 8-4.8 11.4.1 6.6 6.7-3 2.9-8.1 3.2 6.5-3.8 1.9-2.7-4.3-5-11.1-.4z" fill="#d19271" stroke-width="none" opacity="1"></path></g></g></g><g id="svga-group-eyes-right-move" transform="matrix(1,0,0,1,0,0)"><g id="svga-group-eyes-right"><g id="svga-group-eyesback-right"><path id="SvgjsPath10417" d="m108.9 97 4.5-5.3 10.7-.6 7.7 4.2-11.5 3.8z" fill="#ffffff" stroke-width="none" opacity="1"></path></g><g id="svga-group-eyesiriswrapper-right" transform="matrix(1,0,0,1,0,0)"><g id="svga-group-eyesiriscontrol-right" transform="matrix(1,0,0,1,0,0)"><g id="svga-group-eyesiris-right"><path id="SvgjsPath10501" d="m119.8 100.2-5.5-2-1-5.8 4.5-3.8 5.5 2.1 1 5.7z" fill="#7b9ad1" stroke-width="none" opacity="1"></path><path id="SvgjsPath10502" d="m115.8 95.4.7-3.1 3-1 2.3 2.1-.6 3.1-3 1z" fill="#000000" stroke-width="none" opacity="1"></path><path id="SvgjsPath10503" d="m115.7 91.7 2.2 2.1.6-.4-1.2-2.7z" fill="#ffffff" stroke-width="none" opacity="1"></path><path id="SvgjsPath10504" d="m119.7 96.4.6 1 .8-.4-.4-1z" fill="#ffffff" stroke-width="none" opacity="1"></path></g></g></g><g id="svga-group-eyesfront-right"><path id="SvgjsPath10426" d="M125 80.8h-11.2l-7.9 8.4v11.9l7.9 8.4H125l7.9-8.4V89.3l-7.9-8.5zm-4.7 18.3L108.9 97l4.5-5.3 10.7-.6 7.7 4.2-11.5 3.8z" fill="#f0c7b1" stroke-width="none" opacity="1"></path><path id="SvgjsPath10429" d="m132.3 95.5-8-4.8-11.4.1-6.6 6.7 3 2.9 8.1 3.2-6.5-3.8-1.9-2.7 4.3-5 11.1-.4z" fill="#d19271" stroke-width="none" opacity="1"></path></g></g></g><g id="svga-group-facehighlight-single"></g><g id="svga-group-eyebrows-left-move" transform="matrix(1,0,0,1,0,0)"><g id="svga-group-eyebrows-left-rotate" transform="matrix(1,1.7453292519943295e-9,-1.7453292519943295e-9,1,1.4695672234665835e-7,-1.3875367699256458e-7)"><g id="svga-group-eyebrows-left"><path id="SvgjsPath10344" d="M92.8 80.6 91.1 86l-2.4 1-14.1-2.3-3.3 1.1-5.1 3.3s3.4-5.3 3.5-5.7c.1-.3 2.5-4.1 2.5-4.1l11.6.6 9 .7z" fill="#6b4e40" stroke-width="none" opacity="1"></path><path id="SvgjsPath10345" d="m77.5 85.3-.4-.1-1.2-2.9-3.8-2.8 1.8.5 3.1 1.8c.1 0 .3 2.1.5 3.5zm2.9.4h-.2c.1-.9.1-2.4.1-2.6 0-.2.6-1.5 1.1-2.6l.3.1c-.4 1.6-.9 3.9-1.3 5.1zm4.6.8 5.6-5.6h.6c-.8 1.4-2 3.3-2.2 3.5-.2.1-1.8 1.2-3.3 2.2l-.7-.1zm.1-5.6h.2l-1.5 3.6-1.3 1.6-.4-.1 3-5.1zm-16.1 4c1.4-.5 2.6-1 2.8-1 .2-.1 1.3.5 2.2 1.1l-.8.3c-.6-.1-1-.2-1.1-.3-.1 0-1.8.3-3.5.7.1-.3.3-.5.4-.8z" fill="#5c3d2e" stroke-width="none" opacity="1"></path></g></g></g><g id="svga-group-eyebrows-right-move" transform="matrix(1,0,0,1,0,0)"><g id="svga-group-eyebrows-right-rotate" transform="matrix(1,1.7453292519943295e-9,-1.7453292519943295e-9,1,1.4713126006427046e-7,-2.1039944897438545e-7)"><g id="svga-group-eyebrows-right"><path id="SvgjsPath10346" d="m107.2 80.6 1.8 5.5 2.4 1 14.1-2.3 3.3 1.1 5.1 3.3s-3.4-5.3-3.5-5.7c-.1-.3-2.5-4.1-2.5-4.1l-11.6.6-9.1.6z" fill="#6b4e40" stroke-width="none" opacity="1"></path><path id="SvgjsPath10347" d="m122.5 85.3.4-.1 1.2-2.9 3.8-2.8-1.8.5-3.1 1.8c-.1 0-.3 2.1-.5 3.5zm-2.9.4h.2c-.1-.9-.1-2.4-.1-2.6 0-.2-.6-1.5-1.1-2.6l-.3.1c.4 1.6.9 3.9 1.3 5.1zm-4.6.8-5.6-5.6h-.6c.8 1.4 2 3.3 2.2 3.5.2.1 1.8 1.2 3.3 2.2l.7-.1zm-.1-5.6h-.2l1.5 3.6 1.3 1.6.4-.1-3-5.1zm16.1 4c-1.4-.5-2.6-1-2.8-1-.2-.1-1.3.5-2.2 1.1l.8.3c.6-.1 1-.2 1.1-.3.1 0 1.8.3 3.5.7-.1-.3-.3-.5-.4-.8z" fill="#5c3d2e" stroke-width="none" opacity="1"></path></g></g></g><g id="svga-group-beardwrap"><g id="svga-group-beard-single-move" transform="matrix(1,0,0,1,0,0)"><g id="svga-group-beard-single" transform="matrix(0.8499995000000001,0,0,0.8499995000000001,15.007550482765183,20.002566446117385)"><path id="SvgjsPath10744" d="m139.1 103.7-5 2.3-1.6 6.3-.9 9.1-8 4.4-2.5-8.3-5.9-.9-8 .9-5.2 2.5h-3.9l-5.2-2.5-8-.9-5.9.9-2.5 8.3-8-4.4-.9-9.1L66 106l-5-2.3-4 19.1 1.6 9.2 28.2 31h26.5l28.2-30.9 1.6-9.2-.8-14.6-3.2-4.6zm-29.4 37.5-3.8 1.4-2.3-1v-2.9h-7.2v2.9l-2.3 1-3.8-1.4-7.4-12.6 1.1-3.5 5 1.9h7.9l2.5-.8h1.2l2.5.8h7.9l5-1.9 1.1 3.5-7.4 12.6z" fill="#6b4e40" stroke-width="none" opacity="1"></path><path id="SvgjsPath10745" d="m105.9 142.6-2.3-.9.7 10.1 1.9-8.1 1.1 9.3.5-9.1 3.5-1.4.5 6.2.8-7.5.4 6.1 1.6-9.8 2.6-6-.1-2.7-7.4 12.6-3.8 1.2zm-9.5-.9-2.3 1-3.8-1.4-5.2-8.8c1.4 3.4 3.9 9.1 3.9 9.1l1.6 6.7 1.3-5.1 2 10.2 1.9-9.4.9 5.8.8-5.6.5-5.3h-1.7l.1 2.8zm-13.6-13.1 1.1-3.5 5 1.9h7.9l2.5-.8h1.2l2.5.8h7.9l5-1.9 1.1 3.5-.2-3.3 2.4-5.5-3.4 4.6-5.2 1.9-7.3-.1-3.6-2.4-3.8 2.4-7.8-.4-5.5-4.2.3 2.6-4.1-6.6 4 11zm-10 5.8c-.1-.7-.7-7.4-1-11.2l-1.3-.7c.8 4.3 2.4 12.6 2.3 11.9zm3.6-8.6L75 125l.8 4 .6-3.2zm-2.3 4.1c0-.4.1-3.1.2-5.3l-1.9-1c.7 2.8 1.7 6.8 1.7 6.3zm-4.8-1.8c0-.4.3-3.7.5-5.9l-1.4-.8s.9 7.4.9 6.7zm56.1-1.9c0 .5 1.5 12.2 1.5 12.2l.4-13.4 1.2 5 .9-6.4.9 2.4.5-3.2.9 1.2-.3-2.5-8 4.4.4 6.6c.1-.1 1.6-6.8 1.6-6.3zM57 122.8l1.6 12.2L74 152l12.7 11h26.5l13-11.1 15.2-16.8 1.6-12.2s-2 7.5-2.2 8c-.3.5-2.3 2.7-2.3 2.7v-4.2s-.9 4.6-.9 5c0 .4-11.6 11.8-11.6 11.8s-.4-3.6-.4-4c0-.4-.9 5.4-.9 5.4l-.5-7.4-1.2 9.3-8.5 7.5-.4-2.7-1.1 3.7-13.3-1.9-12.1 1.5-8.3-7.4-1.5-5.2s-.7 2.8-.7 3.2c0 .4-2.6-7.8-2.6-7.8l.4 5.2-3.2-3.5-2.6-9.4v6.9l-6.9-7.7-2.5-9 1.1-19.2-3 5-.8 14.1z" fill="#5c3d2e" stroke-width="none" opacity="1"></path></g></g></g><g id="svga-group-mustache-single-move" transform="matrix(1,0,0,1,0,0)"><g id="svga-group-mustache-single"><path id="SvgjsPath10631" d="m98.1 118.8 1.3 1.6-.7 4.4-5.4.9.2-1.4-.9 1.6-4.9.9.2-1.3-1.2 1.5v-.9l-.9 1.1-3.1-.3.6-1.5-1 1.2-.2-1.8s2.9-3.3 3.1-3.4 7.6-2.6 7.6-2.6h5.3zm4.3 0-1.3 1.6.7 4.4 5.4.9-.2-1.4.9 1.6 4.9.9-.2-1.3 1.2 1.5v-.9l.9 1.1 3.1-.3-.6-1.5 1 1.2.2-1.8s-2.9-3.3-3.1-3.4-7.6-2.6-7.6-2.6h-5.3z" fill="#6b4e40" stroke-width="none" opacity="1"></path><path id="SvgjsPath10632" d="M95.8 125c0 .2-.1-2-.1-2s-.5 1.3-.9 2.5l3.9-.6.7-4.4-1.3-1.6-5.3-.1s-7.4 2.5-7.6 2.6-3.1 3.4-3.1 3.4l.2 1.8 1-1.2-.6 1.5 1.8.2.3-2.2 2.1-2.5-1 2.4-.5 2.2.8-1.5 3.1-4.4-.5 2.2-.5 3 .9-3 1.4-3.3 3 .5-1.7 5 2.5-4.6-.7 3.6 1.4-3.6 3.7.7c-.3 1.2-.9 3-1 3.2-.1.3-1.2.3-1.2.3l.4-3.1s-1.2 2.8-1.2 3zm22.6-.3-.5.6-1.4-1.8.3 1.4-2.3-2.8 2.5 4.4-1.8-.1-1.8-2.1.1 1.2-2.7-4.7 1.4 5.1-.9-1.7.1 1.8-2.9-6.2 1.5 6.1-1.2-.9.4 1.2 3.6.6-.2-1.3 1.2 1.5v-.9l.9 1.1 3.1-.3-.6-1.5 1 1.2.2-1.9zm-10.7-6-5.3.1-1.3 1.6.7 4.4 2.7.4-1.1-1.7.3 1.4-.9-.5-.9-2.5 1-1.4 1.8 4.1-.3-2.6 1.1 2.9-1.2-5.2.8-.2 1.1 4.2V120l1.8 4.5-.9-4.5s.5-.6 1-1.1c-.1-.1-.4-.2-.4-.2z" fill="#634536" stroke-width="none" opacity="1"></path></g></g><g id="svga-group-nose-single-move" transform="matrix(1,0,0,1,0,0)"><g id="svga-group-nose-single"><path id="SvgjsPath10534" d="m100.22 120.13-3.87-2.61-3.17 1.74-2.29-3.79 2.76-4.04 2.7-10.52-1.19-5.23 2.21-4.67 2.77-1.1 2.85 1.66 1.59 4.51-1.27 4.03 1.51 4.7 1.97 6.86 2.61 3.88-2.29 3.71-3.48-1.18z" fill="#f0c7b1" stroke-width="none" opacity="1" transform="translate(0 1)"></path><path id="SvgjsPath10535" d="m106.93 111.02-2.82 2.43 2.82-1.11 1.82 3.03-2.02 3.13-2.12-1.21.71-1.62-5.15 4.14-5.15-4.14.7 1.62-2.12 1.21-2.02-3.13 1.82-3.03 2.83 1.11-2.03-2.8 2.77-9.73-1.07-4.59 2.14-5.34-3.15-5.09 1.89 4.84-2.26 4.71 1.13 4.84L93 111.61l-2.73 3.96 2.83 4.64 3.33-1.71 2.93 2.42h1.62l2.92-2.42 3.34 1.71 2.83-4.64z" fill="#d19271" stroke-width="none" opacity="1" transform="translate(0 1)"></path><path id="SvgjsPath10536" d="m104.63 87.03-2.01 4.21 1.57 4.84-1.19 3.96 1.82 4.77-1.07-4.77 1.2-4.03-1.64-4.9z" fill="#d19271" stroke-width="none" opacity="1" transform="translate(0 1)"></path><path id="SvgjsPath10537" d="M101.47 114.77s2.23-4.26 2.23-4.55c0-.29-1.65-9.88-1.65-9.88l.48-5.14-.97-3.58-1.65 9.4v13.27l1.56.48z" fill="#f8d5c3" stroke-width="none" opacity="1" transform="translate(0 1)"></path><path id="SvgjsPath10538" d="m93.1 120.21 3.33-1.71 2.93 2.42h1.62l2.92-2.42 3.34 1.71 2.83-4.64-3.14-4.55-2.82 2.43 2.82-1.11 1.82 3.03-2.02 3.13-2.12-1.21.71-1.62-5.15 4.14-5.15-4.14.7 1.62-2.12 1.21-2.02-3.13 1.82-3.03 2.83 1.11-2.03-2.8-1.2.96-2.73 3.96z" fill="#d19271" stroke-width="none" opacity="1" transform="translate(0 1)"></path></g></g><g id="svga-group-hair-front"><path id="SvgjsPath10644" d="M79.5 54.5 67 63l-6.3 29.7s1.6 32.2 1.4 33.3c-.3 1.1-8.7 15.5-8.7 15.5l5.5-16.9-3-36 .3 32.7-3.3 12.3 1.4-20.4-1.6-35.7L55 55.6l8.7-10.9 9.3-3 12.3-13.9 21.3-3L136 38.4s10.4 25.4 10.6 26.2c.3.8-1.9 23.2-1.9 23.2l-4.9 21.3.6 19.9 4.9 16.1-9.8-15.5-2.2-12.5.8 13.4 3 13.6-5.7-13.9-2.2-20.2 5.7-42.5-8.2-8.5-7.6-5.5-14.4 3H88.5l-9-2z" fill="#6b4e40" stroke-width="none" opacity="1"></path><path id="SvgjsPath10645" d="m97.9 52.8-.2-13.1 15.4-6 14.1 6.8 6.9 9.1.8 8.9-3.3-9.3-7.5-7.3-12.7-3.9-10.2 4.8-3.3 10zm-8.1 1.9-4-4.6 7.5-11.8-4.6 11.4 1.1 5zm-7.9-13.5 5.8-9.4L107 26l29 12.5-28.4-10.3L88.9 34l-7 7.2zM139 57.8l2.3 13.1-5.8 36 1.7 22.2 3.7 6.9-2.1-7.7-.6-21.8 6-36.4-5.2-12.3zM75.2 52l-13.9 8.9L58 90l5.4-28 11.8-10z" fill="#73574a" stroke-width="none" opacity="1"></path><path id="SvgjsPath10646" d="m88.5 56.4-4.6-5.8L92.7 37l20.8-4.8 13.7 7.2 8.4 9.4-7.8-10.3-14.8-8-22 5.3-10.3 14.8 3.9 5 3.9.8zm-9-1.9-3.1-5L85.8 31l20.7-6.1-21.3 3L73 41.7l.6 7.8 5.9 5zm-7.6-8.9L57.6 56.1l-2.7 21.8.8 6.7.6-7.3 3.4-20.8 12.2-10.9zm7.6 8.9-14.2 7.6-6.1 30.3 2.7 22.2-.5-23.4 6.6-28 11.5-8.7zm56-4.3 2.6 16-6.1 37.9 1.3 12.9-2.7-12.1 6-39.5-1.1-15.2zm-30.9 6.2.2-10.2 10.2-6.4 14.8 8.9 5.1 12.5v6l-1.6-6.8-5.8-10.8-12.9-6.5-8.1 4.5-1.9 8.8zm14.5-3 5-2.7 5.7 8.1 1.9 4.5-3.4-4.9-4.7-5.6-4.5.6z" fill="#634536" stroke-width="none" opacity="1"></path></g><g id="svga-group-glasses-single-move" transform="matrix(1,0,0,1,0,0)"><g id="svga-group-glasses-single"><path id="SvgjsPath10568" d="m73.4 88-4.8 3.4-1.6 6 .8 6.3 2.3 4.3 3.2 2.7 4.9 1.8 4.5.1 4.3-1.4 4.8-3.8 3.1-5.9.1-5.4-3.1-5.1-5.3-3.1-6.7-1.2z" fill="url(#SvgjsLinearGradient10569)" opacity="1"></path><path id="SvgjsPath10574" d="m126.6 88 4.8 3.4 1.6 6-.8 6.3-2.3 4.3-3.2 2.7-4.9 1.8-4.5.1-4.3-1.4-4.8-3.8-3.1-5.9-.1-5.4 3.1-5.1 5.3-3.1 6.7-1.2z" fill="url(#SvgjsLinearGradient10575)" opacity="1"></path><path id="SvgjsPath10580" d="m133.7 88.8-6.5-1.6-7.4-1.2-6.9 1.1-5.8 3.1-3.1.2-3.3-.4h-1.3l-3.4.5-3.1-.2-5.8-3.1-6.9-1.2-7.4 1.2-6.5 1.6-3.2.2v4l2.2.9.9 3.2.8 6.6 2.2 4.4 3.8 3.2 4.9 1.9 4.9.1 4.4-1.4 5.2-4.1 3.6-6.5 1.1-4.6-1.1-.8-.4-1.9 1.2-.8 2.6-.2h1.3l2.6.2 1.2.8-.4 1.6-1.1.8 1.1 4.6 3.6 6.5 5.2 4.1 4.4 1.4 4.9-.1 4.9-1.9 3.8-3.2 2.2-4.4.8-6.6.9-3.2 2.2-.9V89l-3.3-.2zM91.2 107l-4.5 3.5-4.3 1.4-4.3-.1-4.4-1.6-3.2-2.7-2.1-4.1-.7-5.9 1.5-4.8 4.4-3.8 6.5-1.2 5.9 1.2 4.9 3.1 3 4.9.1 4.1-2.8 6zm40.4-3.7-2.1 4.1-3.2 2.7-4.4 1.6-4.3.1-4.3-1.4-4.5-3.5-2.8-6 .1-4.3 3-4.9 4.9-3.1 5.9-1.2 6.5 1.2 4.4 3.8 1.5 4.8-.7 6.1z" fill="#e4d96e" stroke-width="none" opacity="1"></path></g></g></g></g></g><rect id="svga-credit-rect" width="200" height="15" x="0" y="185" fill="#ecf0f1" opacity="0.5" style="display: none;"></rect><text id="svga-credit-text" font-family="Avenir Next, Roboto, Helvetica, Arial, sans-serif" font-size="10px" text-anchor="start" font-weight="400" size="10px" anchor="start" weight="400" fill="#333333" x="33.40447998046875" y="182.60824704170227" style="display: none;"><tspan id="SvgjsTspan10333" dy="13" x="33.40447998046875">Created on AvatarMaker.com</tspan></text></g><defs id="SvgjsDefs10280"><linearGradient id="SvgjsLinearGradient10569" x1="81" y1="113.2516" x2="81" y2="87.433" gradientTransform="matrix(1 0 0 -1 0 200)" gradientUnits="userSpaceOnUse" class="svga-on-canvas-glasses-gradient-single-0-null"><stop id="SvgjsStop10570" stop-opacity="1" stop-color="#9ab4d3" offset="0" ></stop><stop id="SvgjsStop10571" stop-opacity="0.7593" stop-color="#93aed1" offset="0.2407" ></stop><stop id="SvgjsStop10572" stop-opacity="0.4009" stop-color="#7e9ecc" offset="0.5991" ></stop><stop id="SvgjsStop10573" stop-opacity="0" stop-color="#6086c4" offset="1" ></stop></linearGradient><linearGradient id="SvgjsLinearGradient10575" x1="-19" y1="113.2516" x2="-19" y2="87.433" gradientTransform="matrix(-1 0 0 -1 100 200)" gradientUnits="userSpaceOnUse" class="svga-on-canvas-glasses-gradient-single-1-null"><stop id="SvgjsStop10576" stop-opacity="1" stop-color="#9ab4d3" offset="0" ></stop><stop id="SvgjsStop10577" stop-opacity="0.7593" stop-color="#93aed1" offset="0.2407" ></stop><stop id="SvgjsStop10578" stop-opacity="0.4009" stop-color="#7e9ecc" offset="0.5991" ></stop><stop id="SvgjsStop10579" stop-opacity="0" stop-color="#6086c4" offset="1" ></stop></linearGradient></defs></svg>