<svg xmlns="http://www.w3.org/2000/svg" version="1.1" width="600px" height="600px" viewBox="0 0 200 200" style="overflow:hidden!important;"><g id="svga-group-wrapper"><g id="svga-group-backs-single"><path id="SvgjsPath8620" d="M0 0h200v200H0V0z" fill="opacity" stroke-width="none" opacity="0"></path></g><g id="svga-group-humanwrap-move" transform="matrix(1,0,0,1,0,0)"><g id="svga-group-humanwrap" transform="matrix(0.9499999,0,0,0.9499999,5.0000096185295035,6.367512658705905)"><g id="svga-group-hair-back-move" transform="matrix(1,0,0,1,0,0)"><g id="svga-group-hair-back"><path id="SvgjsPath11146" d="m138.2 58.5 7.6 15.3-1.2 31.3-5.4 31.4-16.7 24.5-79.2 36s-5.7-16.6-5.7-17.5 21.2-55 21.2-55L50.9 73 79 41.9l35.1 4.5 24.1 12.1z" fill="#c8c570" stroke-width="none" opacity="1"></path></g></g><g id="svga-group-humanbody-back"><path id="SvgjsPath8691" d="m168.2 200-4.6-14.2-34.9-13.4-10.8-9.7-1.4-50.5h-33l-1.4 50.5-10.8 9.7-34.9 13.4-4.6 14.2-3 20h142.4z" fill="#f3d4cf" stroke-width="none" opacity="1" stroke="none"></path><path id="SvgjsPath8692" d="m83.5 112.2-1.4 50.5-10.8 9.7-34.9 13.4-4.6 14.2-3 20H39v-20l1.7-13.3 32.1-12.9 14.1-9.5 2-52.1z" fill="#d4958a" stroke-width="none" opacity="1" stroke="none"></path></g><g id="svga-group-chinshadow-single"><path id="SvgjsPath8687" d="m117.5 151.4-1.1-39.3H83.5l-1.2 44.3c3.4 1.7 11 5.4 14.9 5.4 5.2 0 16.6-6.3 16.6-6.3 1.3-1.2 2.5-2.6 3.7-4.1z" fill="#c5796d" stroke-width="none" opacity="1" stroke="none"></path></g><g id="svga-group-humanbody-front"></g><g id="svga-group-clothes-single"><path id="SvgjsPath11407" d="m170.3 199.6-4.7-15.1-32.8-12-2-4.2-3.4-1.2.3-1.3-1.2-7.3-2.5-2.4.3-3.2-3.5-5.4h-3.4l-1 2.2-6.4 5.1-10 1.3-10-1.3-6.4-5.1-1-2.2h-3.4l-3.5 5.4.3 3.2-2.5 2.4-1.2 7.3.3 1.3-3.4 1.2-2 4.2-32.8 12-4.7 15.1-2.9 20.4h146.4z" fill="#b2b2b2" stroke-width="none" opacity="1" stroke="none"></path><path id="SvgjsPath11408" d="m124.3 152.9-3.5 5.9-.4-5.5-3-1.9 2.6 2.6v6.2l-.4.7-3.6 3.5 4.3-2.6 2.9 5.3 1 8.5-.3-9.2-2.7-5.6 2.7-4.7.4-3.2zm-18.9 34H93.8l-13-4.2-1.7-2.4h3.7l2.4.7 1.6 3.3s-.5-1.8-.8-3l5.7 1.7 11.5.2-8-1-.8-7.4.6-3.9 9.2-.4-9.1-.8.3-2.3.6-8.1s-1.6 8.4-1.4 8.7c0 .1-.1.7-.2 1.6h-.3l-5.8-3.2.9-1.8.6-8.3-1.2 8-.9 1.8-1.1-.6-.8-2.5 1-3.9 3-2.7 9.6 1.5 11.7-1.7 8.4-7.9s-.1-.3-.2-.7h-1.8l-1 2.2-6.4 5.1-10 1.4-10-1.4-6.4-5.1-1-2.2h-3.3l-3.6 5.4.3 3.2-2.5 2.4-1.2 7.3.3 1.4-3.4 1.2-2 4.2-32.8 12-4.7 15-3 20.3h8l3.8-24.3 1.8-3.6c2.8 3.2 7.1 8.4 7.1 8.4l4 13.7.3 5.9H54c-.2-3.4-.4-7.2-.4-7.5 0-.5-5.1-13.2-5.1-13.2l-7.9-7.5.3-.6 32.6-9.6 3.9 1.2 14.9 5.2 13 .2 10.7-3 8.3-7.1-8.3 5.9-10.6 2.8zM92.6 171l1.7-.1c-.3 1.8-.7 3.9-.6 4.1.1.3 1.1 5.2 1.5 7.2l-3.1-.4-6.2-2.8c.2-2.7.6-8.8.6-8.8l.6-1.3 5.5 2.1zm-8.5-3.2 2.2.9-.8 1.7-.4 8.4-2.1-.9-1.3-5.6 2.4-4.5zm63.6 44.7c0 .3-.2 4.1-.4 7.5h2.1l.3-5.9 4-13.7s6.6-7.9 8.8-10.3l-9.7 9.2s-5.1 12.7-5.1 13.2zm14.8-22.4.7-.6c-.1 0-.4.3-.7.6zm-47.9-25.3-.8-3.5h.3-.3l-1.1-4.4.8 4.4-11.4-1-7.6-1.7s7.1 2.9 7.6 2.9h1.9l1.3 5.4.2 7.1 1.4 6.7 1.3 4.7-.6-4.5s-1.1-6.1-1.3-6.6c-.2-.4-.6-7.4-.6-7.4l-1.8-5.5c2.8 0 7.7-.1 9.4-.1l.7 4 1.4 4.7-.8 5 1.3 5.4.7 2.7-.3-3.6-1.1-4.4 1-5.8-1.6-4.5z" fill="#a3a3a3" stroke-width="none" opacity="1" stroke="none"></path></g><g id="svga-group-head" transform="matrix(1,0,0,1,0,0)"><g id="svga-group-ears-left-move" transform="matrix(1,0,0,1,0,0)"><g id="svga-group-ears-left"><path id="SvgjsPath8637" d="m65.4 98.3-5.3-9.7-7-.9-2 7.2.4 8.9 7 11.4 6.1 4.5 3.8-11.6z" fill="#f3d4cf" stroke-width="none" opacity="1" stroke="none"></path><path id="SvgjsPath8638" d="m59.4 101.2-4.1-9.8-1.9 5.1.4 5 2.6 6.1-1.6-9.4 1.5-.7 1.3 10.8 2 2.1z" fill="#d4958a" stroke-width="none" opacity="1" stroke="none"></path><path id="SvgjsPath8639" d="m61.7 101-3.2-11.6-5.4-1.7 7 .9 5.3 9.7 3 9.8-3.8 11.6-6.1-4.5 3.6.7z" fill="#e4b3ab" stroke-width="none" opacity="1" stroke="none"></path></g></g><g id="svga-group-ears-right-move" transform="matrix(1,0,0,1,0,0)"><g id="svga-group-ears-right"><path id="SvgjsPath8640" d="m134.6 98.3 5.3-9.7 7-.9 2 7.2-.4 8.9-7 11.4-6.1 4.5-3.8-11.6z" fill="#f3d4cf" stroke-width="none" opacity="1" stroke="none"></path><path id="SvgjsPath8641" d="m140.6 101.2 4.1-9.8 1.9 5.1-.4 5-2.6 6.1 1.6-9.4-1.5-.7-1.3 10.8-2 2.1z" fill="#d4958a" stroke-width="none" opacity="1" stroke="none"></path><path id="SvgjsPath8642" d="m138.3 101 3.2-11.6 5.4-1.7-7 .9-5.3 9.7-3 9.8 3.8 11.6 6.1-4.5-3.6.7z" fill="#e4b3ab" stroke-width="none" opacity="1" stroke="none"></path></g></g><g id="svga-group-faceshape-wrap"><g id="svga-group-faceshape-single"><path id="SvgjsPath8673" d="M136.8 61c-6.7-11.2-19-18.9-19-18.9-7-1.5-17.8-2.2-17.8-2.2s-10.8.8-17.8 2.2c0 0-12.4 7.6-19 18.9 0 0-5 14-5.2 23.9 0 0 2.6 23.7 5.8 34 0 0 9.9 19.8 19.6 29.7 0 0 11.5 6.3 16.6 6.3s16.6-6.3 16.6-6.3c9.7-9.9 19.6-29.7 19.6-29.7 3.1-10.3 5.8-34 5.8-34-.3-9.8-5.2-23.9-5.2-23.9z" fill="#f3d4cf" stroke-width="none" opacity="1" stroke="none"></path><path id="SvgjsPath8674" d="m85.8 45.6 28.8-.8L136.8 61c-6.7-11.2-19-18.9-19-18.9-7-1.5-17.8-2.2-17.8-2.2s-10.8.8-17.8 2.2c0 0-12.4 7.6-19 18.9 0 0-5 14-5.2 23.9 0 0 2.6 23.7 5.8 34 0 0 9.9 19.8 19.6 29.7 0 0 11.5 6.3 16.6 6.3-4.1-.5-15.3-8.6-15.3-8.6-3.3-4.7-15.2-28-15.2-28-2.5-6.4-6.6-34.9-6.6-34.9.3-3.3 4.4-20.5 4.4-21.3s18.5-16.5 18.5-16.5z" fill="#d4958a" stroke-width="none" opacity="1" stroke="none"></path></g></g><g id="svga-group-mouth-single-move" transform="matrix(1,0,0,1,0,0)"><g id="svga-group-mouth-single"><path id="SvgjsPath8625" d="m90.86 133.49.13 1.07 6.52 3.88 11.26-1.42 5.5-6.18s-14.32-.27-14.52-.27-8.89 2.92-8.89 2.92z" fill="#da7c87" stroke-width="none" opacity="1" transform="translate(0 3)" stroke="none"></path><path id="SvgjsPath8626" d="m87.85 133.25 3.14 1.31 9.34-2.99 13.94-.73 3.94-3.5 1.03.51-2.27-2.56.29 1.97-3.57 2.05-8.83-2.27-3.94 2.34-4.89-1.39-6.94 4.89z" fill="#cb5f6c" stroke-width="none" opacity="1" transform="translate(0 3)" stroke="none"></path><path id="SvgjsPath8627" d="m96.42 133.72 4.19-1.4 6.91-.15-6.6 1.63z" fill="#e99ca5" stroke-width="none" opacity="1" transform="translate(0 3)" stroke="none"></path></g></g><g id="svga-group-eyes-left-move" transform="matrix(1,0,0,1,0,0)"><g id="svga-group-eyes-left"><g id="svga-group-eyesback-left"><path id="SvgjsPath8747" d="m91.1 104.4-2.5-6.8-10.9-3.1-7.2 2.1 5.5 8.1z" fill="#ffffff" stroke-width="none" opacity="1"></path></g><g id="svga-group-eyesiriswrapper-left" transform="matrix(1,0,0,1,0,0)"><g id="svga-group-eyesiriscontrol-left" transform="matrix(1,0,0,1,0,0)"><g id="svga-group-eyesiris-left"><path id="SvgjsPath8707" d="m82.59 104.53-4.96-1.82-.91-5.21 4.06-3.39 4.96 1.82.91 5.21z" fill="#7987ba" stroke-width="none" opacity="1"></path><path id="SvgjsPath8708" d="m78.98 100.2.59-2.78 2.71-.88 2.11 1.9-.59 2.78-2.71.88z" fill="#000000" stroke-width="none" opacity="1"></path><path id="SvgjsPath8709" d="m78.88 96.88 1.96 1.88.55-.39-1.1-2.43z" fill="#ffffff" stroke-width="none" opacity="1"></path><path id="SvgjsPath8710" d="m82.49 101.12.47.86.78-.31-.39-.95z" fill="#ffffff" stroke-width="none" opacity="1"></path></g></g></g><g id="svga-group-eyesfront-left"><path id="SvgjsPath8755" d="M68 94.5v11.1l7.7 7.9h10.9l7.7-7.9V94.5l-7.7-7.9H75.7L68 94.5zm2.5 2.1 7.1-2.1 11 3.1 2.5 6.8-15.1.3-5.5-8.1z" fill="#f3d4cf" stroke-width="none" opacity="1" stroke="none"></path><path id="SvgjsPath8756" d="m71.4 96.9 4.9 7.7 7.2-.1-7.5.4-5.9-7.9z" fill="#d4958a" stroke-width="none" opacity="1" stroke="none"></path><path id="SvgjsPath8757" d="m91.9 105.9-2.5-9-11-4.6L65 94.7l4.1 2.6h2.5l7-2.5 9.9 2.9 2.2 6.6z" fill="#000000" stroke-width="none" opacity="1" stroke="none"></path></g></g></g><g id="svga-group-eyes-right-move" transform="matrix(1,0,0,1,0,0)"><g id="svga-group-eyes-right"><g id="svga-group-eyesback-right"><path id="SvgjsPath8748" d="m108.9 104.4 2.5-6.8 10.9-3.1 7.2 2.1-5.5 8.1z" fill="#ffffff" stroke-width="none" opacity="1"></path></g><g id="svga-group-eyesiriswrapper-right" transform="matrix(1,0,0,1,0,0)"><g id="svga-group-eyesiriscontrol-right" transform="matrix(1,0,0,1,0,0)"><g id="svga-group-eyesiris-right"><path id="SvgjsPath8711" d="m119.22 104.53-4.96-1.82-.91-5.21 4.06-3.39 4.96 1.82.91 5.21z" fill="#7987ba" stroke-width="none" opacity="1"></path><path id="SvgjsPath8712" d="m115.61 100.2.59-2.78 2.71-.88 2.11 1.9-.59 2.78-2.71.88z" fill="#000000" stroke-width="none" opacity="1"></path><path id="SvgjsPath8713" d="m115.51 96.88 1.96 1.88.55-.39-1.1-2.43z" fill="#ffffff" stroke-width="none" opacity="1"></path><path id="SvgjsPath8714" d="m119.12 101.12.47.86.78-.31-.39-.95z" fill="#ffffff" stroke-width="none" opacity="1"></path></g></g></g><g id="svga-group-eyesfront-right"><path id="SvgjsPath8758" d="M124.3 86.6h-10.9l-7.7 7.9v11.1l7.7 7.9h10.9l7.7-7.9V94.5l-7.7-7.9zm-.3 18.1-15.1-.3 2.5-6.8 11-3.1 7.1 2.1-5.5 8.1z" fill="#f3d4cf" stroke-width="none" opacity="1" stroke="none"></path><path id="SvgjsPath8761" d="m128.6 96.9-4.9 7.7-7.2-.1 7.5.4 5.9-7.9z" fill="#d4958a" stroke-width="none" opacity="1" stroke="none"></path><path id="SvgjsPath8762" d="m108.1 105.9 2.5-9 11-4.6 13.4 2.4-4.1 2.6h-2.5l-7-2.5-9.9 2.9-2.2 6.6z" fill="#000000" stroke-width="none" opacity="1" stroke="none"></path></g></g></g><g id="svga-group-facehighlight-single"></g><g id="svga-group-eyebrows-left-move" transform="matrix(1,0,0,1,0,0)"><g id="svga-group-eyebrows-left-rotate" transform="matrix(1,1.7453292519943295e-9,-1.7453292519943295e-9,1,1.5341443315719516e-7,-1.3971360601772176e-7)"><g id="svga-group-eyebrows-left"><path id="SvgjsPath8800" d="m93.2 89.1-.6 1.9-2.1 1.2-11.6-5.5-7.1-.1-4.9 3.1 4.3-4.7 7.5-1.4 9.1 2.7z" fill="#2a232b" stroke-width="none" opacity="1"></path><path id="SvgjsPath8801" d="m90 87.5.8.4-.4 2.5-.4-2.9zm-5.5-2.2 1.4 2.4-1.9-2.5.5.1zm3.3 1 .3.2c.2 1.3.5 3.4.5 3.4l-1.4-3.7.6.1zm-5.6-1.6.7 1.3-2-1.7 1.3.4zM71 86.3c-.1 0 0 0 0 0zm-1.7.7c.7-.3 1.3-.6 1.6-.7-.3.2-1.4 1-2.5 1.7l.9-1zm6-2.7 1.6 1.6-2.1-1.5.5-.1zm-4.1.7 1.5-.3 2.3.7c0 .1-2.2-.2-3.8-.4z" fill="#3a353a" stroke-width="none" opacity="1"></path></g></g></g><g id="svga-group-eyebrows-right-move" transform="matrix(1,0,0,1,0,0)"><g id="svga-group-eyebrows-right-rotate" transform="matrix(1,1.7453292519943295e-9,-1.7453292519943295e-9,1,1.5341443315719516e-7,-2.093522368795675e-7)"><g id="svga-group-eyebrows-right"><path id="SvgjsPath8802" d="m106.8 89.1.6 1.9 2.1 1.2 11.6-5.5 7.1-.1 4.9 3.1-4.3-4.7-7.5-1.4-9.1 2.7z" fill="#2a232b" stroke-width="none" opacity="1"></path><path id="SvgjsPath8803" d="m110 87.5-.8.4.4 2.5.4-2.9zm5.5-2.2-1.4 2.4 1.9-2.5-.5.1zm-3.3 1-.3.2c-.2 1.3-.5 3.4-.5 3.4l1.4-3.7-.6.1zm5.6-1.6-.7 1.3 2-1.7-1.3.4zm11.2 1.6c.1 0 0 0 0 0zm1.7.7c-.7-.3-1.4-.6-1.6-.7.3.2 1.4 1 2.5 1.7l-.9-1zm-6-2.7-1.6 1.6 2.1-1.5-.5-.1zm4.1.7-1.5-.3-2.3.7c0 .1 2.2-.2 3.8-.4z" fill="#3a353a" stroke-width="none" opacity="1"></path></g></g></g><g id="svga-group-nose-single-move" transform="matrix(1,0,0,1,0,0)"><g id="svga-group-nose-single"><path id="SvgjsPath9083" d="m104.26 110.12-1.71-13.72.96 12.74-.75-.19 5.77 8.81-2.05 1.51-1.13-1.32.25-1.17-4.51 3.91h-2.1l-4.51-3.91.25 1.17-1.13 1.32-2.04-1.51 5.76-8.81-.75.19 1.17-19.97-1.92 20.95-5.1 7.73 3.34 2.45 1.26-1.76 3.67 3.42h2.1l3.68-3.42 1.25 1.76 3.34-2.45z" fill="#d4958a" stroke-width="none" opacity="1" transform="translate(0 2)"></path><path id="SvgjsPath9084" d="m96.64 116.02 2.07 1.27 2.71.06 2.24-1.02-.27-1.54-3.14-.53-3.45.59z" fill="#fbe5e2" stroke-width="none" opacity="1" transform="translate(0 2)"></path></g></g><g id="svga-group-hair-front"><path id="SvgjsPath11140" d="m76.3 163.2-4.6 14.9L60 190.5l.5 11.6-5.7 11-2.9-8.6-10.7-10.7.7-16.2L60 150l3.1-8.5 2.5 4.5 1.7-2.4 2.5 2.8z" fill="#c8c570" stroke-width="none" opacity="1"></path><path id="SvgjsPath11141" d="m120.2 54-21.6 2.3-22.6-1-12.2 13-.3 26.2 6.5 25.2-8.4 29.3-18.7 31.6 1.6 15.2 9 14.2v7.1L48 209l-13.6-10.6-3.5-22.6 7.7-22.3L49 125.4l-8.7-39.7 2.3-10 2.6-19.1 19.7-24.2 25.3-9.1 26.2 5.5 10.2 9.8.9 5.5 12.7 7.6 5.8 22.1-4.3 20.1-3.1.2-3.6-21.2L124.6 62l-4.4-8zm-55.5 93.3-8.5 31-5.9 9 1 12 3.1 5.1.3 8.7 1.5-10.5-2.6-5.1.3-10.5 6.7-7.2 4.1-32.5zm8.7 15.4-9.5 17.7-7.7 9.2 1 9 1 3.3.3-12 11-11.3 3.9-15.9z" fill="#d7d58e" stroke-width="none" opacity="1"></path><path id="SvgjsPath11142" d="m88.5 32.4-22.2 7.5-13 19.2 1 17.3 14 41.1-.4 9.1 2-7-6.5-25.2.3-26.2L76 55.3l22.6 1 21.6-2.3-7.7-14.6-24-7zm54 53.8-3.4-3.6-1.3-4.7h6.5l-4.1-3.1-6.7-9L120.2 54l4.2 7.9 10.4 10.9 3.6 21.2 3.1-.2-1.8-7.9 2.8.3zm-21.9-33.5 3.5-3.7 3-3.5-2.2 4.7-4.3 2.5zm-75.5 4 .3 26.8 13.4 41-1.8 25-7.8 18.3 9.2-18.1 3.5-27.2-14.4-41.2-2.4-24.6zm-4.9 29 9.2 40.6-15.1 51.5.1 20.6L48 209.1l5.5 8.1-5.7-11.9L37 198v-21l19.7-55-16.5-36.3z" fill="#cfcd7f" stroke-width="none" opacity="1"></path><path id="SvgjsPath11143" d="m86 45.8-15.1 1.9-11.5 17.1 2 18.1 2.2 5.8.2-20.4 12.3-12.9 22.6 1z" fill="#b8b655" stroke-width="none" opacity="1"></path><path id="SvgjsPath11144" d="m121.1 50-4.9-15.1L88 28.4l-24.3 8.2-16.1 22 2.3 22L65.3 120 60 150l-10.8 17.8-9.9 14.3 2 16.1 7.6 5.6-5.9-7.9-1.3-13.2L52.5 165l9.1-16 6.7-31.5-15.2-38.9-1.6-19.7 17.1-21 20.7-6.6 23.2 8.1z" fill="#dfdd9e" stroke-width="none" opacity="1"></path><path id="SvgjsPath11145" d="m124.1 54.3 11.5 9.2 5.9 9.2 3.6 2.3-7.2-15.5z" fill="#e6e5af" stroke-width="none" opacity="1"></path></g><g id="svga-group-glasses-single-move" transform="matrix(1,0,0,1,0,0)"><g id="svga-group-glasses-single"></g></g></g></g></g><rect id="svga-credit-rect" width="200" height="15" x="0" y="185" fill="#ecf0f1" opacity="0.5" style="display: none;"></rect><text id="svga-credit-text" font-family="Avenir Next, Roboto, Helvetica, Arial, sans-serif" font-size="10px" text-anchor="start" font-weight="400" size="10px" anchor="start" weight="400" fill="#333333" x="33.40447998046875" y="182.60824704170227" style="display: none;"><tspan id="SvgjsTspan8619" dy="13" x="33.40447998046875">Created on AvatarMaker.com</tspan></text></g><defs id="SvgjsDefs8571"></defs></svg>