<svg xmlns="http://www.w3.org/2000/svg" version="1.1" width="600px" height="600px" viewBox="0 0 200 200" style="overflow:hidden!important;"><g id="svga-group-wrapper"><g id="svga-group-backs-single"><path id="SvgjsPath10776" d="M0 0h200v200H0V0z" fill="opacity" stroke-width="none" opacity="0"></path></g><g id="svga-group-humanwrap-move" transform="matrix(1,0,0,1,0,0)"><g id="svga-group-humanwrap"><g id="svga-group-hair-back-move" transform="matrix(1,0,0,1,0,0)"><g id="svga-group-hair-back"></g></g><g id="svga-group-humanbody-back"><path id="SvgjsPath10703" d="m170 180.3-27.3-6.9-18-9.9-1.5-28.2H76.8l-1.5 28.2-18 9.9-27.3 6.9-9.1 19.7-3 20h164.2l-3-20z" fill="#f0c7b1" stroke-width="none" opacity="1" stroke="none"></path><path id="SvgjsPath10704" d="m76.8 135.3-1.5 28.2-18 9.9-27.3 6.9-9.1 19.7-3 20h14.6v-20l2.7-17.7 23.8-6.4 24.7-8.3 3.5-32.3z" fill="#d19271" stroke-width="none" opacity="1" stroke="none"></path></g><g id="svga-group-chinshadow-single"><path id="SvgjsPath10699" d="m121.7 151.9 2.2-2.6-.7-14H76.8l-1 18.5 11.2 6.9h20.4z" fill="#c27b55" stroke-width="none" opacity="1" stroke="none"></path></g><g id="svga-group-humanbody-front"><path id="SvgjsPath10705" d="m92.8 168.3 2 7.9 6.9 4.6s-8.5-3-8.7-3.6c-.2-.6-.2-8.9-.2-8.9z" fill="#d19271" stroke-width="none" opacity="1" stroke="none"></path></g><g id="svga-group-clothes-single"><path id="SvgjsPath11117" d="m127 164.4-1.2-2.1-1-5-8.7 10.1-16.1 12.7-16.1-12.7-8.7-10.1-1 5-1.2 2.1L87.8 220h24.4z" fill="#f7f7f7" stroke-width="none" opacity="1"></path><path id="SvgjsPath11118" d="m87.3 186.5-5.8 8.7.4 1.4 6.2-9 7.8-6.5 4.1-1.1-4.2.4-8.5 6.1zm25.4 0-8.4-6.1-4.2-.4 4.1 1.1 3.7 3.3-4.8 10.3 2.7 25.2h4.2l-2.2-16.4-1.2-7.2 1.3-2.8 3.5-6.4.6.5 6.2 9 .4-1.4-5.9-8.7z" fill="#cecece" stroke-width="none" opacity="1"></path><path id="SvgjsPath11119" d="m73.3 163.7-14.9 7.1.3.9-6.5 1.5-24.6 6.2-4.3-.5-2.2 2.6-4.7 38.5h73.7L78 179.4l-4.7-15.7zM179 181.5l-2.2-2.6-4.3.5-24.6-6.2-6.5-1.5.3-.9-14.9-7.1-4.7 15.7-12.2 40.6h73.7l-4.6-38.5z" fill="#333859" stroke-width="none" opacity="1" stroke="none"></path><path id="SvgjsPath11120" d="m32.2 186.6-4.3-6.1 3.5 7 3.4 17 1.3 15.5-.2-16-3.7-17.4zm38.1-17-9.6 4.6-2.1-2.5 1.3 2.8-3.7 1.8L75.6 220h1.8l-19.2-43.3 12.1-7.1zM21 181.5 16.4 220H23c.1-4.2.2-13.1.1-13.9-.1-1 1.4-23.2 1.4-23.2l2.3-3.6-3.4-.4-2.4 2.6zm146.8 5.1-3.6 17.4-.1 15.9 1.3-15.5 3.4-17 3.5-7-4.5 6.2zm-26.5-14.9-2.1 2.5-9.6-4.6 12.1 7.1-19.1 43.3h1.8l19.3-43.7-3.7-1.8 1.3-2.8z" fill="#161b3a" stroke-width="none" opacity="1" stroke="none"></path><path id="SvgjsPath11121" d="m103.7 195.3 4.9-10.7-4.4-3.8-4.2-.7-4.2.7-4.4 3.8 4.9 10.7-3 10.2L92 220h16l-1.3-14.5z" fill="#222222" stroke-width="none" opacity="1"></path><path id="SvgjsPath11122" d="m96.7 195.3 1.2.1-.6 6.2 1.7.1-.3-6.1 1.7.1-.3 8.3h2.3l-1-8.2 1.8-.4-3.9-.3z" fill="#000000" stroke-width="none" opacity="1"></path></g><g id="svga-group-head" transform="matrix(1,0,0,1,0,0)"><g id="svga-group-ears-left-move" transform="matrix(1,0,0,1,0,0)"><g id="svga-group-ears-left"><path id="SvgjsPath10598" d="M63.1 91.8s-6-.7-10.6-3.7c0 0-3.5 9.4-4 14.4 0 0 6.7 13 10 18.5 0 0 5.2-.7 6.3-1.4l1.4-8.4-3.1-19.4z" fill="#f0c7b1" stroke-width="none" opacity="1" stroke="none"></path><path id="SvgjsPath10599" d="M53.3 90c-.2-.4-.8-1.9-.8-1.9 5.2.4 10.7 1.4 10.7 1.4l3 21.6-1.4 8.4c-1.1.7-6.3 1.4-6.3 1.4-.6-1-1.3-2.3-2.1-3.6l2.6 1 3-1.6s.7-11.2.5-11.5c-.1-.3-9-14.8-9.2-15.2z" fill="#e1ac8f" stroke-width="none" opacity="1" stroke="none"></path><path id="SvgjsPath10600" d="m50.3 100.9 2.8-5.5 5.2 6.8 2.2 9.5-1.4 1.9-4.3-7.6 1-4.7-2.6-4z" fill="#d19271" stroke-width="none" opacity="1" stroke="none"></path></g></g><g id="svga-group-ears-right-move" transform="matrix(1,0,0,1,0,0)"><g id="svga-group-ears-right"><path id="SvgjsPath10601" d="M136.9 91.8s6-.7 10.6-3.7c0 0 3.5 9.4 4 14.4 0 0-6.7 13-10 18.5 0 0-5.2-.7-6.3-1.4l-1.4-8.4 3.1-19.4z" fill="#f0c7b1" stroke-width="none" opacity="1" stroke="none"></path><path id="SvgjsPath10602" d="M146.7 90c.2-.4.8-1.9.8-1.9-5.2.4-10.7 1.4-10.7 1.4l-3 21.6 1.4 8.4c1.1.7 6.3 1.4 6.3 1.4.6-1 1.3-2.3 2.1-3.6l-2.6 1-3-1.6s-.7-11.2-.5-11.5c.1-.3 9-14.8 9.2-15.2z" fill="#e1ac8f" stroke-width="none" opacity="1" stroke="none"></path><path id="SvgjsPath10603" d="m149.7 100.9-2.8-5.5-5.2 6.8-2.2 9.5 1.4 1.9 4.3-7.6-1-4.7 2.6-4z" fill="#d19271" stroke-width="none" opacity="1" stroke="none"></path></g></g><g id="svga-group-faceshape-wrap"><g id="svga-group-faceshape-single"><path id="SvgjsPath10682" d="M143.4 84.8c-.2-10.2-5.3-24.8-5.3-24.8-6.9-11.6-19.7-19.5-19.7-19.5-7.2-1.5-18.4-2.3-18.4-2.3s-11.1.8-18.4 2.3c0 0-12.8 7.9-19.7 19.5 0 0-5.1 14.5-5.3 24.8l1 27.1 6.5 21.2 11.4 13.2 14.3 8.8h20.5l14.3-8.8 11.4-13.2 6.5-21.2.9-27.1z" fill="#f0c7b1" stroke-width="none" opacity="1" stroke="none"></path><path id="SvgjsPath10683" d="M109.5 151.6H89.3l-12.1-8.1-8.3-12.9L63 111l-1.3-28.3 4.6-21.6 16.4-17.2 17.2-3.8 18.5.4c-7.2-1.5-18.4-2.3-18.4-2.3s-11.1.8-18.4 2.3c0 0-12.8 7.9-19.7 19.5 0 0-5.1 14.5-5.3 24.8l1 27.1 6.5 21.2 11.4 13.2 14.3 8.8h20.5l14.3-8.8 11.4-13.2-12.6 11.7-13.9 6.8z" fill="#d19271" stroke-width="none" opacity="1" stroke="none"></path><path id="SvgjsPath10684" d="m88.8 141 6.5-2.8h9.3l7.3 2.2-6.6-4H94.7z" fill="#e1ac8f" stroke-width="none" opacity="1" stroke="none"></path></g></g><g id="svga-group-mouth-single-move" transform="matrix(1,0,0,1,0,0)"><g id="svga-group-mouth-single"><path id="SvgjsPath10943" d="m108.34 124.95-5.79-1.49-.84 1.44-1.66.6-1.76-.6-.84-1.44-5.79 1.49s-3.26 5.76-3.26 5.91l11.65-2.91 11.55 2.91c0-.15-3.26-5.91-3.26-5.91z" fill="#d19481" stroke-width="none" opacity="1" transform="translate(0 2)" stroke="none"></path><path id="SvgjsPath10944" d="m85.21 129.79 3.66 1.38 11.28-2.37 11.13 2.35 3.07-1.45-3.7.6-10.6-2.8-10.77 2.84-4.07-.55z" fill="#c27a64" stroke-width="none" opacity="1" transform="translate(0 2)" stroke="none"></path><path id="SvgjsPath10945" d="m91.46 137 3.3 1.7 5.7-1.2 6.4 1.2-6.4-.6-5.9 1.1z" fill="#d19271" stroke-width="none" opacity="1" transform="translate(0 2)" stroke="none"></path></g></g><g id="svga-group-eyes-left-move" transform="matrix(1,0,0,1,0,0)"><g id="svga-group-eyes-left"><g id="svga-group-eyesback-left"><path id="SvgjsPath10638" d="M91.2 95.7 86 91.1l-9 .1-7 3.8s5.8 4.3 7.2 4.9l8.8-.4 5.2-3.8z" fill="#ffffff" stroke-width="none" opacity="1"></path></g><g id="svga-group-eyesiriswrapper-left" transform="matrix(1,0,0,1,0,0)"><g id="svga-group-eyesiriscontrol-left" transform="matrix(1,0,0,1,0,0)"><g id="svga-group-eyesiris-left"><path id="SvgjsPath10720" d="m79.4 99.5-2.6-1.9-1-3 1-3.1 2.6-1.9h3.2l2.6 1.9 1 3.1-1 3-2.6 1.9z" fill="#59452c" stroke-width="none" opacity="1"></path><path id="SvgjsPath10721" d="m82.5 89.8 2.5 1.8.9 2.9-.9 3-2.5 1.8h-3.1L77 97.5l-.9-2.9.9-2.9 2.5-1.8h3m.2-.6h-3.4l-2.8 2-1.1 3.2 1.1 3.2 2.8 2h3.4l2.8-2 1.1-3.2-1.1-3.2-2.8-2z" fill="#3a2811" stroke-width="none" opacity="1"></path><path id="SvgjsPath10722" d="M81.8 91.9h-1.6l-1.4 1-.6 1.7.6 1.6 1.4 1h1.6l1.4-1 .6-1.6-.6-1.7z" fill="#000000" stroke-width="none" opacity="1"></path><path id="SvgjsPath10723" d="m82.4 99.2.2-.8.9.2.1-.9.8.2s-.2-.8-.1-.8.8.1.8.1l-.5-.8.8-.2-.4-.9.9-.3-.7-.5.5-.7-.7-.3.3-.9-.6-.2.2-.8h-.6l-.2-.6h-.4l-.1-.6 1.3.7.8 1.9.5 1.5-.1.5-.8 2.5-2 1.5-.9.6-2.4-.2.5-.6.5.4.6-.4.8.4z" fill="#3a2811" stroke-width="none" opacity="1"></path><path id="SvgjsPath10724" d="m76.9 95.9 1.2-.4v.2l-1.2.3v-.1zm.9-1.8c-.5-.1-1-.1-1.1-.1l-.1-.2s.1 0 1.1.1l.1.2zm.5-2.9.1-.1.6.8-.1.1-.6-.8zm2.2-.7h.2v.9h-.2v-.9zm2.8 1.7.7-.6.1.1-.7.6-.1-.1zm.9 1.7.7-.1v.2l-.7.1v-.2zm-.2 1.7.1-.2.7.3-.1.2-.7-.3zm-1.5 1.6.2-.1.4.8-.2.1-.4-.8zm-3.2 1.5.4-1.2.2.1-.4 1.2-.2-.1zm-1.2-1.3.3-.4.1.1-.3.4-.1-.1z" fill="#231605" stroke-width="none" opacity="1"></path><path id="SvgjsPath10725" d="m80.6 92.1-1-.3-.7.7.2.9 1 .3.7-.7z" fill="#ffffff" stroke-width="none" opacity="1"></path><path id="SvgjsPath10726" d="m82.7 96.3-.5-.4-.6.4v.6l.6.4.5-.4z" fill="#ffffff" stroke-width="none" opacity="1"></path></g></g></g><g id="svga-group-eyesfront-left"><path id="SvgjsPath10646" d="M67.1 89.3v11.9l7.9 8.4h11.2l7.9-8.4V89.3l-7.9-8.4H75l-7.9 8.4zm3 5.7 7-3.8 9-.1 5.1 4.6-5.2 3.9-8.8.4c-1.3-.8-7.1-5-7.1-5z" fill="#f0c7b1" stroke-width="none" opacity="1" stroke="none"></path><path id="SvgjsPath10647" d="m91.7 96.1-1.2-.6-4.7-4.1H77l-7.2 4-1 .2 7.9-5 9.6-.1z" fill="#000000" stroke-width="none" opacity="1" stroke="none"></path><path id="SvgjsPath10648" d="m90.8 94-4-4.1-9.8-.1-8.1 3.6 8.1-3.1h9.7z" fill="#e1ac8f" stroke-width="none" opacity="1" stroke="none"></path></g></g></g><g id="svga-group-eyes-right-move" transform="matrix(1,0,0,1,0,0)"><g id="svga-group-eyes-right"><g id="svga-group-eyesback-right"><path id="SvgjsPath10639" d="m108.8 95.7 5.1-4.6 9 .1 7 3.8s-5.8 4.3-7.2 4.9l-8.8-.4-5.1-3.8z" fill="#ffffff" stroke-width="none" opacity="1"></path></g><g id="svga-group-eyesiriswrapper-right" transform="matrix(1,0,0,1,0,0)"><g id="svga-group-eyesiriscontrol-right" transform="matrix(1,0,0,1,0,0)"><g id="svga-group-eyesiris-right"><path id="SvgjsPath10727" d="m117.4 99.5-2.6-1.9-1-3 1-3.1 2.6-1.9h3.2l2.6 1.9 1 3.1-1 3-2.6 1.9z" fill="#59452c" stroke-width="none" opacity="1"></path><path id="SvgjsPath10728" d="m120.5 89.8 2.5 1.8.9 2.9-.9 2.9-2.5 1.8h-3.1l-2.5-1.8-.9-2.9.9-2.9 2.5-1.8h3.1m.2-.5h-3.4l-2.8 2-1.1 3.2 1.1 3.2 2.8 2h3.4l2.8-2 1.1-3.2-1.1-3.2-2.8-2z" fill="#3a2811" stroke-width="none" opacity="1"></path><path id="SvgjsPath10729" d="M119.8 91.9h-1.6l-1.4 1-.6 1.7.6 1.6 1.4 1h1.6l1.4-1 .6-1.6-.6-1.7z" fill="#000000" stroke-width="none" opacity="1"></path><path id="SvgjsPath10730" d="m120.4 99.2.2-.8.9.2.1-.9.8.2s-.2-.8-.1-.8.8.1.8.1l-.5-.8.8-.2-.4-.9.9-.3-.7-.5.5-.7-.7-.3.3-.9-.6-.2.2-.8h-.6l-.1-.5h-.4l-.1-.6 1.3.7.8 1.9.5 1.5-.1.5-.8 2.5-2 1.5-.9.6-2.4-.2.5-.6.5.4.6-.4.7.3z" fill="#3a2811" stroke-width="none" opacity="1"></path><path id="SvgjsPath10731" d="m114.9 95.9 1.2-.4v.2l-1.2.4v-.2zm.9-1.8c-.5-.1-1-.1-1.1-.1l-.1-.2s.1 0 1.1.1l.1.2zm.5-2.9.1-.1.6.8-.1.1-.6-.8zm2.2-.7h.2v.9h-.2v-.9zm2.7 1.7.7-.6.1.1-.7.6-.1-.1zm1 1.7.7-.1v.2l-.7.1v-.2zm-.2 1.7.1-.2.7.3-.1.2-.7-.3zm-1.5 1.6.2-.1.4.8-.2.1-.4-.8zm-3.2 1.5.4-1.2.2.1-.4 1.2-.2-.1zm-1.2-1.3.3-.4.1.1-.3.4-.1-.1z" fill="#231605" stroke-width="none" opacity="1"></path><path id="SvgjsPath10732" d="m118.6 92.1-1-.3-.7.7.2.9 1 .3.7-.7z" fill="#ffffff" stroke-width="none" opacity="1"></path><path id="SvgjsPath10733" d="m120.7 96.3-.5-.4-.6.4v.6l.6.4.5-.4z" fill="#ffffff" stroke-width="none" opacity="1"></path></g></g></g><g id="svga-group-eyesfront-right"><path id="SvgjsPath10649" d="M125 80.8h-11.2l-7.9 8.4v11.9l7.9 8.4H125l7.9-8.4V89.3l-7.9-8.5zm-2.3 19.1-8.8-.4-5.1-3.8 5.1-4.6 9 .1 7 3.8s-5.8 4.2-7.2 4.9z" fill="#f0c7b1" stroke-width="none" opacity="1" stroke="none"></path><path id="SvgjsPath10652" d="m108.3 96.1 1.2-.6 4.7-4.1h8.8l7.2 4 1 .2-7.9-5-9.6-.1z" fill="#000000" stroke-width="none" opacity="1" stroke="none"></path><path id="SvgjsPath10653" d="m109.2 94 4-4.1 9.8-.1 8.1 3.6-8.1-3.1h-9.7z" fill="#e1ac8f" stroke-width="none" opacity="1" stroke="none"></path></g></g></g><g id="svga-group-facehighlight-single"></g><g id="svga-group-eyebrows-left-move" transform="matrix(1,0,0,1,0,0)"><g id="svga-group-eyebrows-left-rotate" transform="matrix(1,1.7453292519943295e-9,-1.7453292519943295e-9,1,1.4713126006427046e-7,-1.3796825726331008e-7)"><g id="svga-group-eyebrows-left"><path id="SvgjsPath11631" d="M74.2 77.6 71 79l-5 9 8.5-4.6 17.3 3.7.9-6z" fill="#85674f" stroke-width="none" opacity="1" stroke="none"></path><path id="SvgjsPath11632" d="m87.9 84-1.2-4-1.7-.4 2.9 4.4zM73 78.2l5.6 4.6-4.4-5.2-1.2.6zm6.9.5 3.8 5-1.9-4.6-1.9-.4zm-11.7 5.4 2.7-1.5-2.1.5-.6 1zm14.7-4.8 1.7 1.9-.5-1.7-1.2-.2zm-12.4.7 3.8.8L71 79l-.5 1zm16.6.1 3.5 5.2-1.4-4.7-2.1-.5z" fill="#947b67" stroke-width="none" opacity="1" stroke="none"></path></g></g></g><g id="svga-group-eyebrows-right-move" transform="matrix(1,0,0,1,0,0)"><g id="svga-group-eyebrows-right-rotate" transform="matrix(1,1.7453292519943295e-9,-1.7453292519943295e-9,1,1.4713126006427046e-7,-2.111848260710758e-7)"><g id="svga-group-eyebrows-right"><path id="SvgjsPath11633" d="m107.3 81.1.9 6 17.3-3.7L134 88l-5-9-3.2-1.4z" fill="#85674f" stroke-width="none" opacity="1" stroke="none"></path><path id="SvgjsPath11634" d="m115 79.6-1.7.3-1.2 4 2.9-4.3zm10.8-2-4.4 5.2 5.6-4.6-1.2-.6zm-7.6 1.5-1.9 4.6 3.8-5-1.9.4zm12.9 4-2.1-.5 2.7 1.5-.6-1zm-15.2-3.6-.5 1.7 1.7-1.9-1.2.2zM129 79l-3.2 1.8 3.8-.8-.6-1zm-18.2 1.5-1.4 4.7 3.5-5.2-2.1.5z" fill="#947b67" stroke-width="none" opacity="1" stroke="none"></path></g></g></g><g id="svga-group-beardwrap"><g id="svga-group-beard-single-move" transform="matrix(1,0,0,1,-0.5,4)"><g id="svga-group-beard-single"></g></g></g><g id="svga-group-mustache-single-move" transform="matrix(1,0,0,1,0,0)"><g id="svga-group-mustache-single"></g></g><g id="svga-group-nose-single-move" transform="matrix(1,0,0,1,0,0)"><g id="svga-group-nose-single"><path id="SvgjsPath10781" d="m102.25 118.74-4.52.04-2.04-2.71-3.77.47-1.73-3.34 3.91-7.46h11.82l3.96 7.54-1.81 3.34-3.66-.78z" fill="#f0c7b1" stroke-width="none" opacity="1" transform="translate(0 1)" stroke="none"></path><path id="SvgjsPath10782" d="m105.92 105.74 3.52 7.45-1.56 2.88-2.69-.21.21-.43 2.8-.96-3.42.21-2.7 3.73h-4.14l-2.7-3.73-3.42-.21 2.8.96.21.43-2.7.21-1.55-2.88 3.52-7.45-4.35 7.56 2.07 3.73 3.94-.54 1.97 2.67h4.56l1.97-2.67 3.94.54 2.07-3.73z" fill="#d19271" stroke-width="none" opacity="1" transform="translate(0 1)" stroke="none"></path><path id="SvgjsPath10783" d="m93.14 108.71 2.71 4.47 7.36.12-7.42.48z" fill="#d19271" stroke-width="none" opacity="1" transform="translate(0 1)" stroke="none"></path><path id="SvgjsPath10784" d="m95.31 107.2 2.06 4.71 5.92.18 1.61-5.13z" fill="#f8d5c3" stroke-width="none" opacity="1" transform="translate(0 1)" stroke="none"></path></g></g><g id="svga-group-hair-front"><path id="SvgjsPath10821" d="M143.01 63.98c-2.54-5.83-19.15-23.84-19.15-23.84L100 36.33l-23.86 3.8s-16.61 18-19.15 23.84l-.93 24.3 4.58 4.03h2.56l.73-24.9 17.21-16.84 7.32 8.24L100 60.55l11.54-1.75 7.32-8.24 17.21 16.84.73 24.9h2.56l4.58-4.03-.93-24.29z" fill="#8c7348" stroke-width="none" opacity="1" stroke="none"></path><path id="SvgjsPath10822" d="M123.86 40.14 100 36.33l-9.09 1.45-11.22 4.57s8.72 13.88 9.72 13.88c.99 0 12.49 1.78 13.48 1.59.99-.2 8.33-.99 8.33-.99l8.33-7.53 18.04 18.24.92 24.77h.86l4.58-4.03-.93-24.3c-2.55-5.84-19.16-23.84-19.16-23.84z" fill="#9b855f" stroke-width="none" opacity="1" stroke="none"></path></g><g id="svga-group-glasses-single-move" transform="matrix(1,0,0,1,0,0)"><g id="svga-group-glasses-single"></g></g></g></g></g><rect id="svga-credit-rect" width="200" height="15" x="0" y="185" fill="opacit" opacity="0.5" style="display: none;"></rect><text id="svga-credit-text" font-family="Avenir Next, Roboto, Helvetica, Arial, sans-serif" font-size="10px" text-anchor="start" font-weight="400" size="10px" anchor="start" weight="400" fill="#333333" x="33.40447998046875" y="182.60824704170227" style="display: none;"><tspan id="SvgjsTspan10572" dy="13" x="33.40447998046875">Created on AvatarMaker.com</tspan></text></g><defs id="SvgjsDefs10519"></defs></svg>